<?xml version="1.0" encoding="UTF-8"?>
<svg width="102px" height="102px" viewBox="0 0 102 102" version="1.1" xmlns="http://www.w3.org/2000/svg" xmlns:xlink="http://www.w3.org/1999/xlink">
    <!-- Generator: Sketch 48.1 (47250) - http://www.bohemiancoding.com/sketch -->
    <title>ic_FAQ + doodles</title>
    <desc>Created with Sketch.</desc>
    <defs></defs>
    <g id="LP-Free-Ticket-Megamillions_v2" stroke="none" stroke-width="1" fill="none" fill-rule="evenodd" transform="translate(-905.000000, -1825.000000)">
        <g id="did-you-know" transform="translate(374.000000, 1755.000000)">
            <g id="ic_FAQ-+-doodles" transform="translate(531.000000, 70.000000)">
                <circle id="Oval-6" fill="#F9D388" cx="51" cy="51" r="51"></circle>
                <path d="M82.0062182,33.685792 C88.8071564,48.7896417 82.0753853,66.5473785 66.971378,73.3482458 C51.8688744,80.1491131 34.1109524,73.4174123 27.3100142,58.3135625 C20.5090759,43.2097128 27.2393433,25.451976 42.3448543,18.6511087 C57.4473579,11.851745 75.2052799,18.5819422 82.0062182,33.685792" id="Fill-4" fill="#83E470"></path>
                <path d="M24.2401475,42.7438527 C23.9150226,43.7994888 22.7956947,44.3916852 21.7400586,44.0665603 C20.6844225,43.7414354 20.0922261,42.6221074 20.417351,41.5664713 C21.3505406,38.5365324 22.7321316,35.6685513 24.5087393,33.0508897 C30.4275746,24.331026 40.2629755,19 50.9976708,19 C68.670065,19 82.9953416,33.3335518 82.9953416,51.0149994 C82.9953416,57.1092965 81.2882674,62.9575876 78.1192809,68.0110773 C77.5324553,68.9468708 76.2981287,69.2297653 75.3623352,68.6429397 C74.4265416,68.0561141 74.1436472,66.8217874 74.7304728,65.8859939 C77.5029632,61.4647848 78.9953416,56.3520233 78.9953416,51.0149994 C78.9953416,35.5421739 66.4604088,23 50.9976708,23 C41.6030208,23 33.0005016,27.6627741 27.8183859,35.2972734 C26.263972,37.5875536 25.0557987,40.0955449 24.2401475,42.7438527 Z M70.9021361,70.7179328 C71.6786352,69.9323611 72.9449438,69.9250063 73.7305155,70.7015054 C74.5160872,71.4780045 74.523442,72.7443131 73.7469429,73.5298848 C72.7072715,74.5817037 71.5944655,75.5618227 70.4189307,76.4610335 C69.5416053,77.1321326 68.2863593,76.9649533 67.6152602,76.0876279 C66.944161,75.2103026 67.1113404,73.9550566 67.9886657,73.2839574 C69.0177862,72.4967445 69.9920796,71.6386223 70.9021361,70.7179328 Z M62.8917518,76.3841395 C63.8912149,75.9138763 65.0826633,76.3428776 65.5529265,77.3423406 C66.0231896,78.3418037 65.5941883,79.5332521 64.5947253,80.0035153 C60.3783165,81.9874022 55.7600045,83.0299988 50.9976708,83.0299988 C33.3259306,83.0299988 19,68.6961172 19,51.0149994 C19,49.9104299 19.8954305,49.0149994 21,49.0149994 C22.1045695,49.0149994 23,49.9104299 23,51.0149994 C23,66.4874749 35.5355666,79.0299988 50.9976708,79.0299988 C55.1683032,79.0299988 59.2054535,78.118601 62.8917518,76.3841395 Z" id="Stroke-28" fill="#4C3A30" fill-rule="nonzero"></path>
                <path d="M45.5653273,63.7239102 C45.5653273,62.7956801 45.8861079,62.0176165 46.5276787,61.3896962 C47.1692495,60.7617758 47.9473131,60.4478203 48.8618927,60.4478203 C49.7764724,60.4478203 50.5545359,60.7617758 51.1961067,61.3896962 C51.8376775,62.0176165 52.1584581,62.7956801 52.1584581,63.7239102 C52.1584581,64.6521403 51.8376775,65.4302038 51.1961067,66.0581242 C50.5545359,66.6860445 49.7764724,67 48.8618927,67 C47.9473131,67 47.1692495,66.6860445 46.5276787,66.0581242 C45.8861079,65.4302038 45.5653273,64.6521403 45.5653273,63.7239102 Z M44.4391715,38.4161162 C46.1181759,36.805364 48.3977656,36 51.278009,36 C54.1582523,36 56.4719677,36.7780636 58.2192243,38.334214 C59.9664809,39.8903645 60.8400962,42.0675774 60.8400962,44.8659181 C60.8400962,47.6642588 60.0483824,49.6913191 58.464931,50.9471598 C56.8814797,52.2030006 54.5336388,52.858212 51.4213379,52.9128137 L51.4213379,57.3764861 L46.0157897,57.3764861 L46.0157897,49.1043593 L48.3500037,49.1043593 C50.6978798,49.1043593 52.4382851,48.8040541 53.5712719,48.2034346 C54.7042586,47.6028151 55.2707435,46.4288947 55.2707435,44.681638 C55.2707435,43.4803991 54.9226624,42.5248825 54.2264898,41.8150594 C53.5303172,41.1052364 52.5748006,40.7503303 51.3599112,40.7503303 C50.1450218,40.7503303 49.1895052,41.0984113 48.4933326,41.7945839 C47.79716,42.4907565 47.449079,43.439448 47.449079,44.6406869 L42.0025796,44.6406869 C41.9479779,42.1017046 42.760167,40.0268685 44.4391715,38.4161162 Z" id="?" fill="#4C3A30"></path>
                <path d="M15.9014954,94.5512139 L12.3931915,98.034611 C11.9076717,98.5214087 11.900693,99.3154477 12.379234,99.8062356 C12.6185046,100.056617 12.9385289,100.182307 13.2605471,100.182307 C13.5725957,100.182307 13.8876353,100.0636 14.1298967,99.8271839 L17.6372036,96.3417917 C18.1237204,95.856989 18.1297021,95.0619525 17.6511611,94.5711646 C17.4118906,94.3217805 17.0918663,94.1970885 16.769848,94.1970885 C16.4568024,94.1970885 16.1427599,94.3157953 15.9014954,94.5512139 Z" id="Clip-8" fill="#82E753"></path>
                <path d="M13.7809605,80.6136354 L2.43754407,91.9695897 C1.9271003,92.4783333 1.9271003,93.3062885 2.43754407,93.8160296 C2.69276596,94.0694038 3.02774468,94.1970885 3.3627234,94.1970885 C3.69670517,94.1970885 4.03068693,94.0694038 4.28590881,93.8160296 L15.6293252,82.4600753 C16.139769,81.9513317 16.139769,81.1223789 15.6293252,80.6136354 C15.3751003,80.3582661 15.0401216,80.2305814 14.7061398,80.2305814 C14.3711611,80.2305814 14.0361824,80.3582661 13.7809605,80.6136354 Z" id="Clip-11" fill="#F6A700"></path>
                <path d="M0.723404255,22.9433371 C0.723404255,21.2904193 2.06232219,19.9507279 3.71428571,19.9507279 C5.36624924,19.9507279 6.70516717,21.2904193 6.70516717,22.9433371 C6.70516717,24.5962549 5.36624924,25.9359462 3.71428571,25.9359462 C2.06232219,25.9359462 0.723404255,24.5962549 0.723404255,22.9433371 Z M1.57779939,22.9433371 C1.57779939,24.1244202 2.53488146,25.0810576 3.71428571,25.0810576 C4.89468693,25.0810576 5.85077204,24.1244202 5.85077204,22.9433371 C5.85077204,21.762254 4.89468693,20.8056166 3.71428571,20.8056166 C2.53488146,20.8056166 1.57779939,21.762254 1.57779939,22.9433371 Z" id="Clip-20"></path>
                <path d="M92.7498572,24.8723404 C92.3604157,24.8723404 91.9739574,24.7209824 91.6833949,24.41823 C91.1052171,23.8248572 91.1142028,22.8651668 91.7013663,22.27786 L95.9433136,18.066751 C96.5364795,17.4885249 97.4891106,17.4945545 98.061286,18.0909784 C98.6394637,18.6843513 98.630478,19.6440416 98.0433146,20.2313485 L93.8013673,24.4424575 C93.5077855,24.7300631 93.1273297,24.8723404 92.7498572,24.8723404 L92.7498572,24.8723404 Z" id="Path" fill="#FABA5B"></path>
                <path d="M80.584037,18.3617021 C80.1678509,18.3617021 79.7516258,18.2026062 79.432971,17.8876477 C78.7989387,17.2544974 78.7989387,16.2252824 79.432971,15.5921321 L93.5447552,1.47486273 C94.1787875,0.841712423 95.2095387,0.841712423 95.8436101,1.47486273 C96.4776814,2.10801304 96.4776424,3.13722807 95.8436101,3.77037838 L81.7318259,17.8876477 C81.4164484,18.2026061 81.0002232,18.3617021 80.584037,18.3617021 L80.584037,18.3617021 Z" id="Path" fill="#ADE79B"></path>
                <path d="M85.4365619,87.1780101 C85.4365619,85.5266787 86.7799767,84.1880101 88.4371629,84.1880101 C90.0943491,84.1880101 91.4377639,85.5266787 91.4377639,87.1780101 C91.4377639,88.8293415 90.0943491,90.1680101 88.4371629,90.1680101 C86.7799767,90.1680101 85.4365619,88.8293415 85.4365619,87.1780101 Z" id="Path" stroke="#3E91D7"></path>
                <path d="M7.43656188,13.1453544 C7.43656188,12.0643429 8.3160018,11.1880101 9.40084592,11.1880101 C10.48569,11.1880101 11.36513,12.0643429 11.36513,13.1453544 C11.36513,14.2263658 10.48569,15.1026986 9.40084592,15.1026986 C8.3160018,15.1026986 7.43656188,14.2263658 7.43656188,13.1453544 Z" id="Path" stroke="#F9A524"></path>
            </g>
        </g>
    </g>
</svg>