<?xml version="1.0" encoding="UTF-8"?>
<svg width="54px" height="17px" viewBox="0 0 54 17" version="1.1" xmlns="http://www.w3.org/2000/svg" xmlns:xlink="http://www.w3.org/1999/xlink">
    <!-- Generator: Sketch 49 (51002) - http://www.bohemiancoding.com/sketch -->
    <title>Group</title>
    <desc>Created with Sketch.</desc>
    <defs></defs>
    <g id="Symbols" stroke="none" stroke-width="1" fill="none" fill-rule="evenodd">
        <g id="footer-no-payments" transform="translate(-198.000000, -36.000000)" fill="#201B3A">
            <g id="icons" transform="translate(29.000000, 21.000000)">
                <g id="secure" transform="translate(169.000000, 15.000000)">
                    <g id="Group">
                        <g id="ic_lock" fill-rule="nonzero">
                            <path d="M5.43407143,0 L5.33057143,0 C3.02592857,0 1.15135714,1.58069488 1.15135714,3.5245691 L1.15135714,7.27742236 C0.432642857,8.03774068 0,8.99710016 0,10.0410443 L0,12.3421234 C0,14.801052 2.38371429,16.8015256 5.31482143,16.8015256 L5.45046429,16.8015256 C8.38092857,16.8015256 10.7652857,14.8013665 10.7652857,12.3421234 L10.7652857,10.0410443 C10.7652857,8.99710016 10.3313571,8.0371118 9.61264286,7.2761646 L9.61264286,3.5245691 C9.61264286,1.58069488 7.73807143,0 5.43407143,0 Z M2.24453571,3.5245691 C2.24453571,2.17027174 3.62957143,1.06909938 5.33089286,1.06909938 L5.43439286,1.06909938 C7.13571429,1.06909938 8.52010714,2.17027174 8.52010714,3.5245691 L8.52010714,6.40673525 C7.65192857,5.88916537 6.59410714,5.58132764 5.45078571,5.58132764 L5.31514286,5.58132764 C4.17053571,5.58132764 3.11271429,5.88916537 2.24453571,6.40799301 L2.24453571,3.5245691 Z M9.67242857,10.0410443 L9.67242857,12.3421234 C9.67242857,14.2114752 7.77825,15.7321118 5.45046429,15.7321118 L5.31482143,15.7321118 C2.98639286,15.7321118 1.09221429,14.2114752 1.09221429,12.3421234 L1.09221429,10.0410443 C1.09221429,8.17169255 2.98639286,6.65042702 5.31482143,6.65042702 L5.45046429,6.65042702 C7.77825,6.65042702 9.67242857,8.17169255 9.67242857,10.0410443 Z" id="Shape"></path>
                            <rect id="Rectangle-path" x="4.5" y="9.53804348" width="1.5" height="3.00794255"></rect>
                        </g>
                        <g id="Group-23" transform="translate(13.906250, 0.000000)">
                            <g id="Group-20" transform="translate(0.937500, 0.000000)">
                                <path d="M5.22,7.20809211 C5.0399991,7.51142696 4.7733351,7.75475786 4.42,7.93809211 C4.0666649,8.12142636 3.6366692,8.21309211 3.13,8.21309211 C2.6299975,8.21309211 2.1833353,8.12809296 1.79,7.95809211 C1.3966647,7.78809126 1.08166785,7.54309371 0.845,7.22309211 C0.60833215,6.90309051 0.4733335,6.52976091 0.44,6.10309211 L1.94,6.10309211 C1.9733335,6.38976021 2.08833235,6.62809116 2.285,6.81809211 C2.48166765,7.00809306 2.7433317,7.10309211 3.07,7.10309211 C3.3633348,7.10309211 3.58833255,7.02475956 3.745,6.86809211 C3.90166745,6.71142466 3.98,6.50976001 3.98,6.26309211 C3.98,6.04309101 3.9166673,5.86142616 3.79,5.71809211 C3.6633327,5.57475806 3.5033343,5.45975921 3.31,5.37309211 C3.1166657,5.28642501 2.8500017,5.18642601 2.51,5.07309211 C2.0699978,4.92642471 1.7100014,4.78142616 1.43,4.63809211 C1.1499986,4.49475806 0.91166765,4.28642681 0.715,4.01309211 C0.51833235,3.73975741 0.42,3.38309431 0.42,2.94309211 C0.42,2.33642241 0.63833115,1.85809386 1.075,1.50809211 C1.51166885,1.15809036 2.0899964,0.983092105 2.81,0.983092105 C3.5566704,0.983092105 4.15166445,1.16309031 4.595,1.52309211 C5.03833555,1.88309391 5.2899997,2.36308911 5.35,2.96309211 L3.83,2.96309211 C3.7899998,2.70975751 3.6833342,2.50142626 3.51,2.33809211 C3.3366658,2.17475796 3.1000015,2.09309211 2.8,2.09309211 C2.5399987,2.09309211 2.3300008,2.16142476 2.17,2.29809211 C2.0099992,2.43475946 1.93,2.63309081 1.93,2.89309211 C1.93,3.09975981 1.99166605,3.27142476 2.115,3.40809211 C2.23833395,3.54475946 2.39499905,3.65642501 2.585,3.74309211 C2.77500095,3.82975921 3.0333317,3.92642491 3.36,4.03309211 C3.8133356,4.19309291 4.18166525,4.34309141 4.465,4.48309211 C4.74833475,4.62309281 4.989999,4.83309071 5.19,5.11309211 C5.390001,5.39309351 5.49,5.75975651 5.49,6.21309211 C5.49,6.57309391 5.4000009,6.90475726 5.22,7.20809211 Z M7.94,2.20309211 L7.94,4.03309211 L10.44,4.03309211 L10.44,5.11309211 L7.94,5.11309211 L7.94,7.01309211 L10.74,7.01309211 L10.74,8.14309211 L6.53,8.14309211 L6.53,1.08309211 L10.74,1.08309211 L10.74,2.20309211 L7.94,2.20309211 Z M17.16,1.69309211 C17.7400029,2.14642771 18.1233324,2.76308821 18.31,3.54309211 L16.83,3.54309211 C16.6766659,3.16309021 16.438335,2.86309321 16.115,2.64309211 C15.7916651,2.42309101 15.4033356,2.31309211 14.95,2.31309211 C14.5766648,2.31309211 14.2400015,2.40642451 13.94,2.59309211 C13.6399985,2.77975971 13.4066675,3.04642371 13.24,3.39309211 C13.0733325,3.73976051 12.99,4.14642311 12.99,4.61309211 C12.99,5.07309441 13.0733325,5.47642371 13.24,5.82309211 C13.4066675,6.16976051 13.6399985,6.43642451 13.94,6.62309211 C14.2400015,6.80975971 14.5766648,6.90309211 14.95,6.90309211 C15.4033356,6.90309211 15.7916651,6.79309321 16.115,6.57309211 C16.438335,6.35309101 16.6766659,6.05309401 16.83,5.67309211 L18.31,5.67309211 C18.1233324,6.45309601 17.7400029,7.06975651 17.16,7.52309211 C16.5799971,7.97642771 15.8500044,8.20309211 14.97,8.20309211 C14.2966633,8.20309211 13.7016693,8.05142696 13.185,7.74809211 C12.6683307,7.44475726 12.2683348,7.01976151 11.985,6.47309211 C11.7016653,5.92642271 11.56,5.30642891 11.56,4.61309211 C11.56,3.91308861 11.7016653,3.28976151 11.985,2.74309211 C12.2683348,2.19642271 12.6666641,1.77142696 13.18,1.46809211 C13.6933359,1.16475726 14.2899966,1.01309211 14.97,1.01309211 C15.8500044,1.01309211 16.5799971,1.23975651 17.16,1.69309211 Z M20.73,1.08309211 L20.73,5.22309211 C20.73,5.77642821 20.8516655,6.19142406 21.095,6.46809211 C21.3383346,6.74476016 21.6899977,6.88309211 22.15,6.88309211 C22.6033356,6.88309211 22.9516655,6.74476016 23.195,6.46809211 C23.4383346,6.19142406 23.56,5.77642821 23.56,5.22309211 L23.56,1.08309211 L24.96,1.08309211 L24.96,5.22309211 C24.96,5.87642871 24.8383346,6.42808986 24.595,6.87809211 C24.3516655,7.32809436 24.0150022,7.66309101 23.585,7.88309211 C23.1549979,8.10309321 22.6666694,8.21309211 22.12,8.21309211 C21.2733291,8.21309211 20.5966692,7.95976131 20.09,7.45309211 C19.5833308,6.94642291 19.33,6.20309701 19.33,5.22309211 L19.33,1.08309211 L20.73,1.08309211 Z M29.88,8.14309211 L28.23,5.39309211 L27.61,5.39309211 L27.61,8.14309211 L26.2,8.14309211 L26.2,1.08309211 L28.89,1.08309211 C29.7100041,1.08309211 30.3349979,1.28309011 30.765,1.68309211 C31.1950022,2.08309411 31.41,2.60975551 31.41,3.26309211 C31.41,3.79642811 31.2616682,4.24309031 30.965,4.60309211 C30.6683319,4.96309391 30.2400028,5.20309151 29.68,5.32309211 L31.44,8.14309211 L29.88,8.14309211 Z M27.61,4.42309211 L28.77,4.42309211 C29.5766707,4.42309211 29.98,4.06642901 29.98,3.35309211 C29.98,3.01309041 29.8816677,2.74809306 29.685,2.55809211 C29.4883323,2.36809116 29.1833354,2.27309211 28.77,2.27309211 L27.61,2.27309211 L27.61,4.42309211 Z M33.77,2.20309211 L33.77,4.03309211 L36.27,4.03309211 L36.27,5.11309211 L33.77,5.11309211 L33.77,7.01309211 L36.57,7.01309211 L36.57,8.14309211 L32.36,8.14309211 L32.36,1.08309211 L36.57,1.08309211 L36.57,2.20309211 L33.77,2.20309211 Z" id="SECURE"></path>
                                <path d="M2.67300005,15.0682763 C2.58659961,15.2230771 2.45520093,15.3490758 2.27880004,15.4462763 C2.10239916,15.5434768 1.88460133,15.5920763 1.62540003,15.5920763 C1.37339876,15.5920763 1.149301,15.5461768 0.953100017,15.4543763 C0.756899032,15.3625759 0.600300596,15.2365771 0.483300009,15.0763763 C0.366299421,14.9161755 0.298800095,14.7334773 0.280800005,14.5282763 L0.804600014,14.5282763 C0.815400068,14.6362768 0.8522997,14.7415758 0.915300016,14.8441763 C0.978300332,14.9467768 1.06829943,15.031376 1.18530002,15.0979763 C1.30230061,15.1645766 1.4435992,15.1978763 1.60920003,15.1978763 C1.82520111,15.1978763 1.99079946,15.1402769 2.10600004,15.0250763 C2.22120062,14.9098757 2.27880004,14.7622772 2.27880004,14.5822763 C2.27880004,14.4274755 2.23830044,14.3014768 2.15730004,14.2042763 C2.07629963,14.1070758 1.97640063,14.0305766 1.85760003,13.9747763 C1.73879944,13.918976 1.57680105,13.8586766 1.37160002,13.7938763 C1.13039881,13.7146759 0.936900746,13.6399766 0.791100014,13.5697763 C0.645299282,13.4995759 0.521100522,13.394277 0.418500007,13.2538763 C0.315899493,13.1134756 0.264600005,12.9280774 0.264600005,12.6976763 C0.264600005,12.4996753 0.312299529,12.325077 0.407700007,12.1738763 C0.503100486,12.0226755 0.63989912,11.9056767 0.818100014,11.8228762 C0.996300909,11.7400758 1.20599882,11.6986762 1.44720003,11.6986762 C1.8216019,11.6986762 2.11859894,11.7895753 2.33820004,11.9713763 C2.55780114,12.1531772 2.68559987,12.3844749 2.72160005,12.6652763 L2.19240004,12.6652763 C2.16359989,12.5140755 2.08620067,12.3808768 1.96020003,12.2656763 C1.8341994,12.1504757 1.66320111,12.0928763 1.44720003,12.0928763 C1.24919903,12.0928763 1.09080061,12.1441757 0.972000017,12.2467763 C0.853199421,12.3493768 0.793800014,12.4942753 0.793800014,12.6814763 C0.793800014,12.829077 0.832499628,12.9487758 0.909900016,13.0405763 C0.987300404,13.1323767 1.08359944,13.204376 1.19880002,13.2565763 C1.3140006,13.3087765 1.47239902,13.367276 1.67400003,13.4320763 C1.91880126,13.5112767 2.11589929,13.5868759 2.26530004,13.6588763 C2.41470079,13.7308766 2.54159952,13.8397756 2.64600005,13.9855763 C2.75040057,14.131377 2.80260005,14.3248751 2.80260005,14.5660763 C2.80260005,14.7460772 2.75940048,14.9134755 2.67300005,15.0682763 Z M5.7402001,15.0682763 C5.65379967,15.2230771 5.52240098,15.3490758 5.34600009,15.4462763 C5.16959921,15.5434768 4.95180138,15.5920763 4.69260008,15.5920763 C4.44059882,15.5920763 4.21650106,15.5461768 4.02030007,15.4543763 C3.82409909,15.3625759 3.66750065,15.2365771 3.55050006,15.0763763 C3.43349948,14.9161755 3.36600015,14.7334773 3.34800006,14.5282763 L3.87180007,14.5282763 C3.88260012,14.6362768 3.91949975,14.7415758 3.98250007,14.8441763 C4.04550039,14.9467768 4.13549949,15.031376 4.25250008,15.0979763 C4.36950066,15.1645766 4.51079925,15.1978763 4.67640008,15.1978763 C4.89240117,15.1978763 5.05799951,15.1402769 5.17320009,15.0250763 C5.28840067,14.9098757 5.34600009,14.7622772 5.34600009,14.5822763 C5.34600009,14.4274755 5.3055005,14.3014768 5.22450009,14.2042763 C5.14349969,14.1070758 5.04360068,14.0305766 4.92480009,13.9747763 C4.80599949,13.918976 4.64400111,13.8586766 4.43880008,13.7938763 C4.19759887,13.7146759 4.0041008,13.6399766 3.85830007,13.5697763 C3.71249934,13.4995759 3.58830058,13.394277 3.48570006,13.2538763 C3.38309955,13.1134756 3.33180006,12.9280774 3.33180006,12.6976763 C3.33180006,12.4996753 3.37949958,12.325077 3.47490006,12.1738763 C3.57030054,12.0226755 3.70709917,11.9056767 3.88530007,11.8228762 C4.06350096,11.7400758 4.27319887,11.6986762 4.51440008,11.6986762 C4.88880196,11.6986762 5.18579899,11.7895753 5.4054001,11.9713763 C5.6250012,12.1531772 5.75279992,12.3844749 5.7888001,12.6652763 L5.25960009,12.6652763 C5.23079995,12.5140755 5.15340072,12.3808768 5.02740009,12.2656763 C4.90139946,12.1504757 4.73040116,12.0928763 4.51440008,12.0928763 C4.31639909,12.0928763 4.15800067,12.1441757 4.03920007,12.2467763 C3.92039948,12.3493768 3.86100007,12.4942753 3.86100007,12.6814763 C3.86100007,12.829077 3.89969968,12.9487758 3.97710007,13.0405763 C4.05450046,13.1323767 4.1507995,13.204376 4.26600008,13.2565763 C4.38120065,13.3087765 4.53959907,13.367276 4.74120008,13.4320763 C4.98600131,13.5112767 5.18309934,13.5868759 5.33250009,13.6588763 C5.48190084,13.7308766 5.60879958,13.8397756 5.7132001,13.9855763 C5.81760062,14.131377 5.8698001,14.3248751 5.8698001,14.5660763 C5.8698001,14.7460772 5.82660053,14.9134755 5.7402001,15.0682763 Z M7.02000012,15.1708763 L8.37000015,15.1708763 L8.37000015,15.5542763 L6.52860012,15.5542763 L6.52860012,11.7472762 L7.02000012,11.7472762 L7.02000012,15.1708763 Z M12.9114002,14.1772763 L10.5408002,14.1772763 C10.5516002,14.515678 10.6478993,14.7694755 10.8297002,14.9386763 C11.0115011,15.1078772 11.2337989,15.1924763 11.4966002,15.1924763 C11.7342014,15.1924763 11.9330994,15.1321769 12.0933002,15.0115763 C12.253501,14.8909757 12.3516,14.7298773 12.3876002,14.5282763 L12.9114002,14.5282763 C12.8754,14.7334773 12.7953008,14.9170755 12.6711002,15.0790763 C12.5468996,15.2410771 12.3858012,15.3670759 12.1878002,15.4570763 C11.9897992,15.5470768 11.7666014,15.5920763 11.5182002,15.5920763 C11.2337988,15.5920763 10.9818013,15.5308769 10.7622002,15.4084763 C10.5425991,15.2860757 10.3707008,15.1105775 10.2465002,14.8819763 C10.1222996,14.6533752 10.0602002,14.3842778 10.0602002,14.0746763 C10.0602002,13.7650747 10.1222996,13.4950774 10.2465002,13.2646763 C10.3707008,13.0342751 10.5425991,12.8578769 10.7622002,12.7354763 C10.9818013,12.6130757 11.2337988,12.5518763 11.5182002,12.5518763 C11.8062016,12.5518763 12.0572991,12.6130757 12.2715002,12.7354763 C12.4857013,12.8578769 12.6494997,13.0216752 12.7629002,13.2268763 C12.8763008,13.4320773 12.9330002,13.658875 12.9330002,13.9072763 C12.9330002,14.0116768 12.9258003,14.1016759 12.9114002,14.1772763 Z M12.3282002,13.3888763 C12.2453998,13.2412755 12.1320009,13.1314766 11.9880002,13.0594763 C11.8439995,12.9874759 11.6874011,12.9514763 11.5182002,12.9514763 C11.2481988,12.9514763 11.0214011,13.0351754 10.8378002,13.2025763 C10.6541993,13.3699771 10.5552003,13.6156747 10.5408002,13.9396763 L12.4362002,13.9396763 C12.4470003,13.7200752 12.4110006,13.536477 12.3282002,13.3888763 Z M15.9732003,12.8731763 C16.1856013,13.0945774 16.2918003,13.4140742 16.2918003,13.8316763 L16.2918003,15.5542763 L15.8004003,15.5542763 L15.8004003,13.8748763 C15.8004003,13.5796748 15.724801,13.3528771 15.5736003,13.1944763 C15.4223995,13.0360755 15.2172016,12.9568763 14.9580003,12.9568763 C14.6879989,12.9568763 14.4720011,13.0441754 14.3100003,13.2187763 C14.1479994,13.3933772 14.0670002,13.6480746 14.0670002,13.9828763 L14.0670002,15.5542763 L13.5756002,15.5542763 L13.5756002,12.5896763 L14.0670002,12.5896763 L14.0670002,13.2916763 C14.1426006,13.0504751 14.2766993,12.8650769 14.4693003,12.7354763 C14.6619012,12.6058756 14.884199,12.5410763 15.1362003,12.5410763 C15.481802,12.5410763 15.7607992,12.6517752 15.9732003,12.8731763 Z M19.2996003,12.8542763 C19.5480016,13.0558773 19.7010001,13.3258746 19.7586003,13.6642763 L19.2402003,13.6642763 C19.2042002,13.4518752 19.1061011,13.2853769 18.9459003,13.1647763 C18.7856995,13.0441757 18.5868015,12.9838763 18.3492003,12.9838763 C18.1763995,12.9838763 18.018901,13.0234759 17.8767003,13.1026763 C17.7344996,13.1818767 17.6202007,13.3033755 17.5338003,13.4671763 C17.4473999,13.6309771 17.4042003,13.8334751 17.4042003,14.0746763 C17.4042003,14.3158775 17.4473999,14.5183755 17.5338003,14.6821763 C17.6202007,14.8459771 17.7344996,14.9674759 17.8767003,15.0466763 C18.018901,15.1258767 18.1763995,15.1654763 18.3492003,15.1654763 C18.5868015,15.1654763 18.7856995,15.1042769 18.9459003,14.9818763 C19.1061011,14.8594757 19.2042002,14.6920774 19.2402003,14.4796763 L19.7586003,14.4796763 C19.7010001,14.821678 19.5480016,15.0925753 19.2996003,15.2923763 C19.0511991,15.4921773 18.7380022,15.5920763 18.3600003,15.5920763 C18.0755989,15.5920763 17.8236014,15.5308769 17.6040003,15.4084763 C17.3843992,15.2860757 17.2125009,15.1105775 17.0883003,14.8819763 C16.9640997,14.6533752 16.9020003,14.3842778 16.9020003,14.0746763 C16.9020003,13.7650747 16.9640997,13.4950774 17.0883003,13.2646763 C17.2125009,13.0342751 17.3843992,12.8578769 17.6040003,12.7354763 C17.8236014,12.6130757 18.0755989,12.5518763 18.3600003,12.5518763 C18.7380022,12.5518763 19.0511991,12.6526753 19.2996003,12.8542763 Z M21.3192004,12.7111763 C21.5064013,12.5977757 21.7295991,12.5410763 21.9888004,12.5410763 L21.9888004,13.0756763 L21.8376004,13.0756763 C21.560399,13.0756763 21.3336013,13.1467756 21.1572004,13.2889763 C20.9807995,13.431177 20.8926004,13.6660746 20.8926004,13.9936763 L20.8926004,15.5542763 L20.4012004,15.5542763 L20.4012004,12.5896763 L20.8926004,12.5896763 L20.8926004,13.1890763 C20.9898009,12.9838752 21.1319994,12.8245768 21.3192004,12.7111763 Z M22.6800004,12.5896763 L23.6412004,14.9224763 L24.5322004,12.5896763 L25.0776004,12.5896763 L23.3172004,16.9582763 L22.7610004,16.9582763 L23.3766004,15.5056763 L22.1292004,12.5896763 L22.6800004,12.5896763 Z M27.8640005,12.7354763 C28.0692015,12.8578769 28.2302999,13.0342751 28.3473005,13.2646763 C28.4643011,13.4950774 28.5228005,13.7650747 28.5228005,14.0746763 C28.5228005,14.3842778 28.4643011,14.6533752 28.3473005,14.8819763 C28.2302999,15.1105775 28.0692015,15.2860757 27.8640005,15.4084763 C27.6587995,15.5308769 27.4248018,15.5920763 27.1620005,15.5920763 C26.873999,15.5920763 26.6301015,15.519177 26.4303005,15.3733763 C26.2304995,15.2275756 26.0928008,15.0358775 26.0172005,14.7982763 L26.0172005,16.9582763 L25.5258005,16.9582763 L25.5258005,12.5896763 L26.0172005,12.5896763 L26.0172005,13.3456763 C26.0928008,13.1080751 26.2304995,12.916377 26.4303005,12.7705763 C26.6301015,12.6247755 26.873999,12.5518763 27.1620005,12.5518763 C27.4248018,12.5518763 27.6587995,12.6130757 27.8640005,12.7354763 Z M26.5032005,13.1215763 C26.3483997,13.2097767 26.2278009,13.3366754 26.1414005,13.5022763 C26.055,13.6678771 26.0118005,13.8586752 26.0118005,14.0746763 C26.0118005,14.2906774 26.055,14.4805755 26.1414005,14.6443763 C26.2278009,14.8081771 26.3483997,14.9350759 26.5032005,15.0250763 C26.6580012,15.1150768 26.8307995,15.1600763 27.0216005,15.1600763 C27.327602,15.1600763 27.5714996,15.0637773 27.7533005,14.8711763 C27.9351014,14.6785753 28.0260005,14.413078 28.0260005,14.0746763 C28.0260005,13.7362746 27.9351014,13.4707772 27.7533005,13.2781763 C27.5714996,13.0855753 27.327602,12.9892763 27.0216005,12.9892763 C26.8307995,12.9892763 26.6580012,13.0333758 26.5032005,13.1215763 Z M30.5802005,15.1222763 L30.5802005,15.5542763 L30.2130005,15.5542763 C29.910599,15.5542763 29.6847013,15.482277 29.5353005,15.3382763 C29.3858998,15.1942756 29.3112005,14.953078 29.3112005,14.6146763 L29.3112005,13.0162763 L28.8684005,13.0162763 L28.8684005,12.5896763 L29.3112005,12.5896763 L29.3112005,11.8498763 L29.8080005,11.8498763 L29.8080005,12.5896763 L30.5748005,12.5896763 L30.5748005,13.0162763 L29.8080005,13.0162763 L29.8080005,14.6254763 C29.8080005,14.8162773 29.8431002,14.946776 29.9133005,15.0169763 C29.9835009,15.0871767 30.1049997,15.1222763 30.2778005,15.1222763 L30.5802005,15.1222763 Z M31.1850006,11.5015762 C31.2462009,11.445776 31.3272,11.4178762 31.4280006,11.4178762 C31.5288011,11.4178762 31.6098003,11.445776 31.6710006,11.5015762 C31.7322009,11.5573765 31.7628006,11.6302758 31.7628006,11.7202762 C31.7628006,11.8102767 31.7322009,11.883176 31.6710006,11.9389763 C31.6098003,11.9947765 31.5288011,12.0226763 31.4280006,12.0226763 C31.3272,12.0226763 31.2462009,11.9947765 31.1850006,11.9389763 C31.1238002,11.883176 31.0932005,11.8102767 31.0932005,11.7202762 C31.0932005,11.6302758 31.1238002,11.5573765 31.1850006,11.5015762 Z M31.6710006,12.5896763 L31.6710006,15.5542763 L31.1796006,15.5542763 L31.1796006,12.5896763 L31.6710006,12.5896763 Z M34.5681006,12.7354763 C34.7931017,12.8578769 34.9695,13.0342751 35.0973006,13.2646763 C35.2251013,13.4950774 35.2890006,13.7650747 35.2890006,14.0746763 C35.2890006,14.3842778 35.2251013,14.6533752 35.0973006,14.8819763 C34.9695,15.1105775 34.7931017,15.2860757 34.5681006,15.4084763 C34.3430995,15.5308769 34.088402,15.5920763 33.8040006,15.5920763 C33.5195992,15.5920763 33.2649017,15.5308769 33.0399006,15.4084763 C32.8148995,15.2860757 32.6376012,15.1105775 32.5080006,14.8819763 C32.3783999,14.6533752 32.3136006,14.3842778 32.3136006,14.0746763 C32.3136006,13.7650747 32.3783999,13.4950774 32.5080006,13.2646763 C32.6376012,13.0342751 32.8148995,12.8578769 33.0399006,12.7354763 C33.2649017,12.6130757 33.5195992,12.5518763 33.8040006,12.5518763 C34.088402,12.5518763 34.3430995,12.6130757 34.5681006,12.7354763 Z M33.3153006,13.1026763 C33.1658998,13.1818767 33.045301,13.3033755 32.9535006,13.4671763 C32.8617001,13.6309771 32.8158006,13.8334751 32.8158006,14.0746763 C32.8158006,14.3122775 32.8617001,14.5129755 32.9535006,14.6767763 C33.045301,14.8405771 33.1658998,14.9620759 33.3153006,15.0412763 C33.4647013,15.1204767 33.6275997,15.1600763 33.8040006,15.1600763 C33.9804015,15.1600763 34.1432999,15.1204767 34.2927006,15.0412763 C34.4421014,14.9620759 34.5627002,14.8405771 34.6545006,14.6767763 C34.7463011,14.5129755 34.7922006,14.3122775 34.7922006,14.0746763 C34.7922006,13.8334751 34.7463011,13.6309771 34.6545006,13.4671763 C34.5627002,13.3033755 34.4421014,13.1818767 34.2927006,13.1026763 C34.1432999,13.0234759 33.9804015,12.9838763 33.8040006,12.9838763 C33.6275997,12.9838763 33.4647013,13.0234759 33.3153006,13.1026763 Z M38.3292007,12.8731763 C38.5416017,13.0945774 38.6478007,13.4140742 38.6478007,13.8316763 L38.6478007,15.5542763 L38.1564007,15.5542763 L38.1564007,13.8748763 C38.1564007,13.5796748 38.0808014,13.3528771 37.9296007,13.1944763 C37.7783999,13.0360755 37.573202,12.9568763 37.3140007,12.9568763 C37.0439993,12.9568763 36.8280015,13.0441754 36.6660006,13.2187763 C36.5039998,13.3933772 36.4230006,13.6480746 36.4230006,13.9828763 L36.4230006,15.5542763 L35.9316006,15.5542763 L35.9316006,12.5896763 L36.4230006,12.5896763 L36.4230006,13.2916763 C36.498601,13.0504751 36.6326997,12.8650769 36.8253007,12.7354763 C37.0179016,12.6058756 37.2401994,12.5410763 37.4922007,12.5410763 C37.8378024,12.5410763 38.1167996,12.6517752 38.3292007,12.8731763 Z" id="SSL-encryption"></path>
                            </g>
                        </g>
                    </g>
                </g>
            </g>
        </g>
    </g>
</svg>