<?xml version="1.0" encoding="UTF-8"?>
<svg width="117px" height="58px" viewBox="0 0 117 58" version="1.1" xmlns="http://www.w3.org/2000/svg" xmlns:xlink="http://www.w3.org/1999/xlink">
    <!-- Generator: Sketch 48.1 (47250) - http://www.bohemiancoding.com/sketch -->
    <title>logo_jinni_loto</title>
    <desc>Created with Sketch.</desc>
    <defs>
        <rect id="path-1" x="0" y="0" width="1920" height="86"></rect>
        <filter x="-1.3%" y="-23.3%" width="102.6%" height="158.1%" filterUnits="objectBoundingBox" id="filter-2">
            <feOffset dx="0" dy="5" in="SourceAlpha" result="shadowOffsetOuter1"></feOffset>
            <feGaussianBlur stdDeviation="7.5" in="shadowOffsetOuter1" result="shadowBlurOuter1"></feGaussianBlur>
            <feColorMatrix values="0 0 0 0 0.498039216   0 0 0 0 0.694117647   0 0 0 0 0.874509804  0 0 0 0.3 0" type="matrix" in="shadowBlurOuter1"></feColorMatrix>
        </filter>
        <path d="M7.97247035,29.7731152 C7.63798282,29.4906019 7.30972266,29.1966424 6.98819525,28.8912238 C-1.09571427,21.2123261 -2.15173826,8.92258929 4.02234823,0.0463721601 L23.3947762,0.0463721601 L23.3947762,29.7731152 L7.97247035,29.7731152 Z" id="path-3"></path>
        <path d="M5.2335476,27.0243061 C2.52041661,23.7857974 0.867801249,19.9468 0.287516158,15.9761231 L0.287516158,9.50138558 C0.517801592,7.92656027 0.91730632,6.37078615 1.48676289,4.86320132 L15.5567358,4.86320132 L15.5567358,27.0243061 L5.2335476,27.0243061 Z" id="path-5"></path>
    </defs>
    <g id="LP-X-for-Megamillions-Step2" stroke="none" stroke-width="1" fill="none" fill-rule="evenodd" transform="translate(-390.000000, -15.000000)">
        <g id="_top" transform="translate(0.000000, 2.000000)">
            <g id="bg">
                <use fill="black" fill-opacity="1" filter="url(#filter-2)" xlink:href="#path-1"></use>
                <use fill="#FFFFFF" fill-rule="evenodd" xlink:href="#path-1"></use>
            </g>
            <g id="logo_jinni_loto" transform="translate(390.406250, 13.000000)">
                <path d="M58.6475896,56.9416013 C58.6475896,56.4625629 47.6848375,56.0741268 34.161562,56.0741268 C20.6382865,56.0741268 9.67553441,56.4625629 9.67553441,56.9416013 C9.67553441,57.4206398 20.6382865,57.8090759 34.161562,57.8090759 C47.6848375,57.8090759 58.6475896,57.4206398 58.6475896,56.9416013" id="Fill-1" fill="#141137"></path>
                <path d="M40.4129385,50.3010751 C31.5326473,59.6301709 16.7099997,60.0028927 7.37094036,51.1315966 C-1.96799612,42.2605461 -2.34098335,27.4533228 6.53930789,18.1241042 C15.419722,8.79476289 30.2424924,8.42204102 39.581306,17.2932144 C48.9203654,26.1645104 49.2934755,40.9717338 40.4129385,50.3010751" id="Fill-3" fill="#141137"></path>
                <path d="M38.5918268,17.8190886 C29.6634835,9.33794731 15.5430597,9.69299067 7.05308397,18.6120433 C-1.43689181,27.5310959 -1.08147861,41.6368262 7.84686469,50.1179675 C16.775208,58.5991087 30.8956318,58.2440654 39.3856076,49.3250128 C47.8755833,40.4058374 47.5201701,26.3002298 38.5918268,17.8190886" id="Fill-5" fill="#FEC30C"></path>
                <path d="M38.5918268,17.8190886 C29.6634835,9.33794731 15.5430597,9.69299067 7.05308397,18.6120433 C-1.43689181,27.5310959 -1.08147861,41.6368262 7.84686469,50.1179675 C16.775208,58.5991087 30.8956318,58.2440654 39.3856076,49.3250128 C47.8755833,40.4058374 47.5201701,26.3002298 38.5918268,17.8190886" id="Fill-7" fill="#F79A1C"></path>
                <path d="M28.7915906,12.3903504 C30.9126405,13.3826794 32.9143591,14.7219491 34.7050664,16.4230144 C43.6334098,24.9041556 43.9888229,39.0097632 35.4988472,47.9289386 C29.7225224,53.9970863 21.3408174,56.0965318 13.7602668,54.1505456 C22.2148488,58.1058661 32.5983953,56.4552582 39.3856567,49.3250496 C47.8756325,40.4058742 47.5202193,26.3002667 38.591876,17.8191254 C35.7380014,15.1081754 32.3528505,13.3045993 28.7915906,12.3903504" id="Fill-9" fill="#F26D31"></path>
                <g id="Group-18" transform="translate(0.860267, 21.224399)">
                    <g id="Group-14">
                        <mask id="mask-4" fill="white">
                            <use xlink:href="#path-3"></use>
                        </mask>
                        <g id="Clip-13"></g>
                        <path d="M14.8461574,29.4733378 C8.40779569,31.1065127 1.50906822,25.9019109 -0.532099766,17.8714489 C-2.57339064,9.84123233 1.00409144,1.97932991 7.44233024,0.346155 C13.8809377,-1.28701991 20.7796652,3.91745907 22.8208332,11.9477984 C24.8621241,19.9782605 21.284642,27.8401629 14.8461574,29.4733378" id="Fill-12" fill="#FEFEFE" mask="url(#mask-4)"></path>
                    </g>
                    <mask id="mask-6" fill="white">
                        <use xlink:href="#path-5"></use>
                    </mask>
                    <g id="Clip-16"></g>
                    <path d="M2.16261311,14.037975 C2.54997909,15.9392739 5.04610546,16.3584019 6.71883334,15.3525685 C8.26288985,14.4239557 9.63956296,11.5112988 9.23683507,9.61773425 C8.8729421,7.90684757 7.34006907,6.66407304 4.72473426,8.44223626 C2.4896375,9.96197408 1.82010392,12.3564297 2.16261311,14.037975 M12.4877844,19.7771061 C11.8358248,17.4242686 8.5410019,16.6634789 6.50364368,17.7683856 C4.6871283,18.7534714 4.06933364,21.7893867 4.70138415,23.3503744 C5.3689514,24.9987725 7.13606287,25.6991606 9.40446426,24.7571662 C11.7291517,23.7916005 13.0255742,21.7186727 12.4877844,19.7771061 M2.81739925,24.8183044 C1.80990361,22.8721953 3.79589161,19.1886818 3.8116222,18.264857 C3.81186799,18.2540535 3.76676542,18.1990537 3.75201799,18.1929153 C2.57087129,17.7027051 0.831042575,17.3708647 0.468993031,15.8265734 C-0.223030384,12.8743854 1.04930462,8.6617444 4.54051421,6.38219906 C8.91669283,3.52454196 11.8793297,5.09964788 12.4044613,7.80409124 C12.7531153,9.59956467 10.0037017,12.9212826 9.5104,14.7888205 C9.50585288,14.8057624 9.52686797,14.882001 9.53534775,14.8878938 C10.4732847,15.541262 14.9359816,15.7376898 15.4435391,18.1276031 C16.1371602,21.392848 13.5607832,24.8421212 9.96990552,26.280587 C6.45804952,27.6872561 3.96905108,27.0427271 2.81739925,24.8183044" id="Fill-15" fill="#F79A1C" mask="url(#mask-6)"></path>
                </g>
                <path d="M57.1414586,8.36707805 C57.1197061,7.88067356 56.8760047,7.44828672 56.4679923,7.16322079 C56.5219434,6.91252973 56.5245242,6.65214005 56.471925,6.39383741 C56.3470634,5.7790182 55.9231975,5.27198878 55.3030678,4.99956789 C55.0050467,4.87078487 54.6909264,4.80547261 54.3702925,4.80547261 C53.6270218,4.80547261 52.9404057,5.16898692 52.5554977,5.73948709 C52.4512825,5.6919761 52.3416599,5.65244499 52.2272443,5.62163037 C52.0221321,5.5661395 51.8114896,5.537903 51.6009699,5.537903 C50.7295194,5.537903 49.962284,6.01264459 49.6819599,6.72211747 C49.4233881,7.33337643 48.9379517,7.80308455 48.3540762,8.29083949 C48.2375714,8.2049023 48.1082856,8.13062801 47.968062,8.07034921 C47.5686523,7.88644363 47.1075492,7.84801742 46.7913396,7.84801742 C46.5526769,7.84801742 46.3079924,7.86864235 46.0683466,7.90964667 C45.666356,7.97643214 45.2587123,8.12338473 44.8864625,8.33589513 C43.9954716,8.84808078 43.6312099,9.51986407 43.8788439,10.1571497 C44.0179614,10.5379742 44.2851358,10.8194799 44.6493975,10.9733075 C44.727436,11.1310636 44.8436949,11.3664087 44.9314422,11.6362515 C44.9823208,11.7889742 45.0218931,11.9264737 45.0421708,12.0001341 C45.137046,12.4292062 45.3700555,12.7752876 45.6403022,13.0571616 C45.3417896,14.6943878 45.4380166,16.1648959 45.539651,17.7111515 C45.5520634,17.9041418 45.4989726,17.9893424 45.4394913,18.0529359 C45.277884,18.2248103 44.8411141,18.4257806 44.1399965,18.4257806 C43.743782,18.4257806 43.340071,18.3578902 43.0033379,18.2348772 C42.4762399,18.0423779 41.3970963,17.7660285 40.1444246,17.4956946 C40.1998503,17.299144 40.2090675,17.0920354 40.1726905,16.8925383 C40.8241585,16.5486668 41.4994681,15.8790933 41.8875715,14.5906493 C42.0517596,14.0461759 42.1425792,13.0030211 41.8189959,12.1636603 C41.8637298,12.1176225 41.9072347,12.0708482 41.9501252,12.0233372 C41.9834298,11.9860159 42.0143994,11.9468531 42.0292697,11.9250005 C42.3008683,11.6091199 42.5191304,11.2902929 42.6965912,10.95035 C42.8996142,10.5615456 43.0567973,10.1352971 43.1643307,9.68412687 C43.2172986,9.46142678 43.259083,9.22816869 43.2888236,8.99135035 C43.4863164,7.42213727 43.0590094,5.84433046 42.0532343,4.42833111 C41.9152229,4.23386753 41.759023,4.03473878 41.5884443,3.83634664 C41.3891081,3.60419346 41.1795717,3.38358042 40.9867489,3.20151634 L40.9359932,3.15363705 C40.7968757,3.02276699 40.6516135,2.89545718 40.5031559,2.77207593 C40.3814896,2.67054728 40.2561364,2.57147397 40.1283253,2.47497879 C39.9210009,2.31832757 39.7021244,2.1656049 39.4780863,2.02196703 C39.3248358,1.92326203 39.1676528,1.82824005 39.004202,1.73432298 C38.9123992,1.68214683 38.8198591,1.63095282 38.727196,1.58123201 C38.51004,1.46484851 38.287108,1.35276186 38.0587685,1.24902339 C37.9189136,1.18518434 37.7777069,1.12416893 37.6361316,1.06659102 C36.6172067,0.649795645 35.5282314,0.366571221 34.3994381,0.225020393 C34.1815448,0.197888794 33.9654948,0.177877706 33.750551,0.16154964 L33.5933679,0.150377805 C33.381988,0.13687339 33.1714683,0.127051997 32.9556642,0.123860044 L32.7992185,0.122755137 C32.6329411,0.122755137 32.467647,0.126315392 32.2991575,0.132944833 L32.1862167,0.137241692 C31.974591,0.147431387 31.7643172,0.161181338 31.5562554,0.181192426 C27.2307097,0.601179749 24.0391188,3.14823529 23.6145156,6.51979677 C23.4526625,7.80811802 23.6607242,8.96520089 24.2652462,10.065688 C23.7181163,10.5520925 23.3887569,11.2286637 23.2667219,11.6352694 C23.077586,12.2659256 22.9882412,14.1060863 23.8861142,14.9330476 L23.54127,16.1528647 L23.530701,16.2229649 C23.4690076,16.6353406 23.556509,17.0536092 23.778335,17.4079159 C23.2561529,17.5164423 22.7943124,17.607413 22.4017848,17.6647454 C19.5319338,18.0836278 14.168906,21.872353 13.7400014,25.0117613 C13.2328125,28.7285447 15.2195379,31.3372295 16.3538615,32.7043674 C14.417769,34.2818059 15.0528919,35.8745903 15.2911858,36.3196222 L15.3187144,36.368852 C15.3623422,36.4475459 15.4103943,36.5252576 15.4702443,36.6119314 L15.5052694,36.6612839 C15.5524612,36.7262279 15.6024796,36.7896986 15.6623296,36.8604127 L15.6972319,36.901417 C15.8270093,37.0483696 15.9733776,37.1883244 16.120852,37.3076544 L16.1681667,37.3449757 C16.2314578,37.3954331 16.2963465,37.444049 16.3526325,37.4832118 L16.417767,37.5281446 C16.4797062,37.5706222 16.5426286,37.6108899 16.6034618,37.6474746 L16.6626973,37.6834454 C16.8224612,37.7773625 16.9903362,37.8625631 17.161898,37.9376967 L17.2158491,37.9597949 C17.2809836,37.9877858 17.3463639,38.0134442 17.4164142,38.0395937 L17.4892911,38.0653748 C17.5536882,38.0882096 17.6180854,38.1089573 17.6872754,38.1295822 L17.7533931,38.1494705 C17.8367161,38.1731646 17.9197933,38.1948945 18.0017645,38.2129413 L18.1212187,38.239459 L18.133754,38.239459 C18.133754,38.239459 18.2274003,38.2557871 18.27705,38.2633987 L18.3373916,38.2710103 C18.3983476,38.2789901 18.4585663,38.2851285 18.5347614,38.2916352 L18.613906,38.2967914 C18.6636786,38.2992468 18.7123451,38.3003517 18.7817809,38.3003517 C18.7853449,38.3003517 18.8891914,38.2992468 18.8891914,38.2992468 C18.9796424,38.2956865 19.0678812,38.2884432 19.1574719,38.2761665 C19.5499994,38.2209212 20.1429693,38.1379304 20.7493346,37.9210004 C20.7860803,37.9089692 20.8215971,37.8955875 20.8782518,37.874226 L20.9345379,37.8532328 C20.9798862,37.8361681 21.0249888,37.8187351 21.0409652,37.8111235 C21.0707058,37.7994606 21.1004465,37.7871839 21.1295727,37.7751527 C21.6153778,38.8325484 22.0957755,39.8790179 22.5644982,40.927206 L22.5695369,40.9602305 C22.6252085,41.3244814 22.7543714,42.1772238 23.0426838,43.2283584 C23.0855742,43.3829226 23.1312913,43.5417836 23.1806952,43.7032228 C23.4058394,44.4416688 23.6755946,45.1427935 23.9828328,45.7891639 C24.0688595,45.969141 24.1593104,46.1493635 24.2550459,46.3289722 C24.4565942,46.706482 24.6755936,47.0688914 24.9050391,47.4047831 C25.0267054,47.5829186 25.1545166,47.7583532 25.2877351,47.9285089 C25.5673219,48.2872353 25.8671864,48.6205488 26.1781115,48.9191191 C26.6040666,49.3279346 27.0661529,49.6870293 27.5539243,49.988055 C27.6562961,50.0507892 27.7601426,50.1114363 27.8632518,50.1684003 C28.4093985,50.4715131 28.9953633,50.7095591 29.6039408,50.8756634 C29.9873741,50.9805068 30.3871525,51.0592007 30.7912322,51.1089215 C31.1688895,51.1560642 31.5617857,51.1800038 31.9589833,51.1800038 L32.0806497,51.1792672 C33.0878995,51.1666222 34.1687637,51.0015 35.296328,50.6888114 C34.9389485,51.0871917 34.5794797,51.5107393 34.2842852,51.9380926 C34.2109168,52.0442864 34.1423412,52.1494981 34.0776983,52.2554464 C33.0758558,53.9065453 33.7178608,54.8902806 34.1902703,55.330279 C34.4717006,55.5921419 34.8343646,55.7361481 35.2116532,55.7361481 C35.5319183,55.7361481 35.8445639,55.6290949 36.0931811,55.4340175 C36.4694865,55.1383936 36.6636611,54.6708953 36.6135198,54.1839997 C36.6135198,54.1839997 36.6059003,53.9932191 36.9879818,53.5365243 C37.0180911,53.500308 37.0496752,53.4639688 37.081628,53.428489 C37.2428666,53.2471616 37.4399907,53.0515931 37.6868873,52.828893 C37.7799191,52.744429 37.8756545,52.6602105 37.9729876,52.5761149 C38.0736388,52.4896866 38.1763793,52.4030128 38.2787511,52.3174439 C38.4820199,52.148516 38.6890985,51.9804474 38.8934733,51.8147114 L39.2479034,51.5263307 C39.4134433,51.3906727 39.5754193,51.2564879 39.7308819,51.124513 C39.8923663,50.9866452 40.0467228,50.8509872 40.1922308,50.7164341 C40.2928821,50.6231308 40.3891091,50.5314236 40.4814035,50.4386114 C40.6904484,50.2281881 40.8596752,50.0340928 40.9997758,49.845522 C41.4816483,49.1948548 41.6352674,48.5546227 41.4541197,47.9350156 C41.4377747,47.879893 41.4181114,47.8251387 41.3934095,47.7649827 C41.3066454,47.5556642 41.1825211,47.3634105 41.0216512,47.1915361 C40.967946,47.1342037 40.907973,47.0772396 40.8386601,47.0176974 C40.7797933,46.9676083 40.7151503,46.9180103 40.6410445,46.8660797 C40.3005016,46.6303662 39.8561122,46.4384808 39.2831743,46.279988 C39.1457774,46.2418074 38.9991633,46.2048544 38.8423489,46.1699884 C38.4552287,46.0829463 38.0130514,46.0064622 37.5285982,45.9426232 C37.0536079,45.8795207 36.5863599,45.8490744 36.0998175,45.8490744 C35.4299152,45.8490744 34.8339959,45.9092305 34.3387279,45.9684043 L33.9160909,46.0202122 C33.7890172,46.036172 33.6669822,46.0507813 33.5497401,46.063058 L33.3892388,46.0782812 C33.2948552,46.0862611 33.2040356,46.0923994 33.1103894,46.0942409 L33.0000294,46.0946093 C32.9331744,46.093136 32.8711122,46.087366 32.811508,46.076808 C32.7589088,46.0673549 32.726956,46.0558147 32.7065554,46.0456251 L32.6634192,46.0170202 C32.6474428,46.002902 32.6208974,45.9763842 32.5751804,45.9114403 C32.5599413,45.8889738 32.5116435,45.8069652 32.5116435,45.8069652 C32.4884163,45.7644877 32.4655577,45.7199231 32.4492127,45.6839523 L32.4356942,45.6425796 C32.2970683,45.2038089 32.1408684,43.9030881 32.0366532,42.3236854 L32.0228889,42.1089652 L31.9916735,41.5336771 L30.8762758,41.5587216 L31.8475173,41.5011437 L31.8827883,41.5169807 C31.8856148,41.5108423 31.8881956,41.5047039 31.8911451,41.4985656 L31.9894614,41.4927955 L31.9825792,41.3139234 C32.5617848,40.2275545 33.6623121,39.6160501 35.1527863,38.7876155 C37.0976044,37.7066485 39.5143404,36.3634502 42.0183321,33.3438629 L43.7612331,31.769248 C43.9297226,31.7499735 44.1399965,31.7256656 44.3839436,31.6937461 C44.5800845,31.6679649 44.7982237,31.6375186 45.0341826,31.6001973 C46.1025114,31.4311466 47.1068118,31.1954331 48.0189407,30.8994409 C48.3486688,30.792756 48.6732353,30.6760042 48.9836688,30.5516408 C49.3228598,30.4159828 49.6500071,30.2701351 49.955279,30.1188857 C51.8902654,29.1608088 53.2803341,27.8467064 54.0864044,26.2130404 C54.469469,25.4360454 54.7193152,24.583303 54.8293065,23.6780161 C54.8938265,23.1458193 54.8531481,22.0638701 53.7598716,18.8225649 C53.3162196,17.5073576 52.8296771,16.2254202 52.5220702,15.4645078 C52.2145861,14.702736 52.1157783,14.2649474 52.0841942,13.9908077 C52.4850787,13.7430631 52.9887036,13.4836556 53.5816734,13.1785785 C54.2636194,12.827832 55.1120885,12.3915166 56.0827156,11.8277687 C56.6998958,11.4777588 57.0511305,10.9079952 57.0220043,10.3036112 C57.0082401,10.0127752 56.9090636,9.74293246 56.7413115,9.51618104 C57.0180717,9.17807959 57.1600158,8.77847165 57.1414586,8.36707805" id="Fill-19" fill="#141137"></path>
                <path d="M51.1158039,15.8812418 C50.3264474,13.9270301 50.6193069,13.4725451 50.7190978,12.5898474 L46.5080905,12.5898474 C46.0705832,14.3384237 46.16128,15.8174027 46.2807342,17.6380435 C46.4020319,19.485693 43.8839072,19.8787943 42.2482937,19.2811625 C41.0600191,18.8471797 35.7355804,17.6548626 31.7928535,17.4926868 C27.8416468,17.3463481 24.2561765,18.4659869 22.1912897,18.7675037 C19.6941802,19.1321229 14.8176948,22.641675 14.473588,25.1623355 C13.8941367,29.4070188 16.9938019,31.9603355 17.5870175,32.9352315 C17.8357575,33.3438015 17.69197,33.4030982 17.2957556,33.3856652 C17.1093234,33.3774398 16.8768055,33.4167253 16.735353,33.5290575 C14.1516023,35.578414 17.2242305,37.3704499 18.6305214,37.1726716 C19.5035696,37.0499042 20.6788173,36.7973716 21.2316004,36.134182 C21.9217804,37.6407837 22.6049553,39.1146065 23.2671152,40.5978824 C23.3568287,40.7987299 24.3451527,52.6013436 34.7959229,49.5670242 C41.5527064,47.6052009 32.6337031,52.7040999 34.5788898,54.5149193 C34.8067377,54.7270613 35.1638715,54.6077314 35.1321645,54.298112 C34.8474161,51.5212359 44.9066419,48.0934469 37.0096359,47.0469775 C33.6462374,46.601209 31.9644153,48.178402 31.0524093,46.1225388 C30.6753665,45.27262 30.4607914,41.1335167 30.4937273,41.0603473 C31.9644153,37.7898234 36.2889779,38.0984607 40.8379473,32.57184 C41.3279309,31.976418 42.7522873,30.7295922 42.9025883,30.7062664 C43.8837843,30.5540348 52.5572428,30.0756102 53.3501632,23.5437699 C53.517178,22.1669334 51.7240127,17.3869841 51.1158039,15.8812418" id="Fill-22" fill="#7FB1DF"></path>
                <path d="M20.2358412,34.4753487 C19.6831811,35.1385383 18.3173228,35.8649531 17.4442746,35.9877205 C16.9949694,36.050823 16.3758229,35.9102543 15.825129,35.6235924 C16.2112661,36.637774 17.7484404,37.2966667 18.6305829,37.1726716 C19.3056467,37.0777724 20.4241168,36.9313109 21.2315389,36.134182 C20.9915244,35.6114384 20.4781908,35.0043535 20.2358412,34.4753487" id="Fill-24" fill="#2F94D1"></path>
                <path d="M51.1158039,15.8812418 C50.3264474,13.9270301 50.6193069,13.4725451 50.7190978,12.5898474 L49.3978505,12.5898474 C49.4016603,13.066676 49.5177963,13.6767073 49.9296185,14.6962907 C50.5377044,16.2019103 52.3309926,20.9819823 52.1638549,22.3586961 C51.3710574,28.8905363 42.3035966,29.6489934 41.3224006,29.801225 C41.1719767,29.8245508 40.1417455,30.791467 39.651639,31.3867661 C35.1026696,36.9133868 30.7782299,36.6048723 29.307419,39.8752734 C29.274606,39.9485656 29.4890582,44.087669 29.866101,44.9375878 C30.1562568,45.591447 30.5246969,45.8771268 30.999933,45.9779188 C30.6557033,44.8866393 30.462389,41.1300792 30.4937273,41.0603473 C31.9644153,37.7898234 36.2889779,38.0984607 40.8379473,32.57184 C41.3279309,31.976418 42.7522873,30.7295922 42.9025883,30.7061436 C43.8837843,30.5540348 52.5572428,30.0756102 53.3501632,23.5437699 C53.5173009,22.1669334 51.7240127,17.3868613 51.1158039,15.8812418" id="Fill-26" fill="#2F94D1"></path>
                <path d="M50.5266561,14.1340282 C50.3619764,14.7407448 49.53612,15.0450852 48.6821206,14.8139142 C47.8281212,14.5826203 47.2691934,13.9032255 47.4338731,13.2965089 C47.5985528,12.6897924 48.4244092,12.3854519 49.2784086,12.6167457 C50.132408,12.8479168 50.6912129,13.5273117 50.5266561,14.1340282" id="Fill-28" fill="#2F94D1"></path>
                <path d="M45.0707808,9.30185369 C44.7040613,9.51264534 44.53889,9.73399499 44.5552351,9.77598145 C44.5855902,9.85884945 44.6385581,9.94601431 44.82413,9.97965259 C45.0304712,10.0169739 45.1542268,10.1334802 45.1962569,10.3033903 C45.2156744,10.3823297 45.4524936,10.7762903 45.6179107,11.2844247 C45.6858718,11.4883413 45.7365047,11.669055 45.7554305,11.7386641 C45.8652989,12.3102692 46.6622749,12.7916402 47.5688735,13.3574752 C48.7968433,14.1043922 49.14943,14.5418125 50.5728033,13.4219281 C51.5025062,12.6944084 52.9536539,12.1397452 55.1602389,10.8585445 C55.6314195,10.5915254 55.6534177,10.1960915 55.2633481,10.0215163 C54.8729097,9.84288969 54.2763759,9.93115946 53.8945403,10.1765715 C53.0597125,10.7119602 52.3347531,11.1140235 51.7185561,11.4521249 C51.6780007,11.4745914 51.6197483,11.468453 51.5891474,11.4398482 C51.5586693,11.4109979 51.5659202,11.3701163 51.6058611,11.3478954 C52.5694832,10.8233103 53.836165,10.0896522 55.303289,8.99874095 C55.7277694,8.69157688 55.7732407,8.26250477 55.417213,8.05073098 C55.0577442,7.83699291 54.4754663,7.96909065 54.1253376,8.30314078 C53.0068675,9.34285801 53.4044338,8.88923242 54.7712753,7.35709509 C55.1797793,6.92397165 55.0917862,6.28729985 54.4884932,6.0226133 C53.8808989,5.75976827 53.2277104,6.03059318 53.0340274,6.50079238 C52.2599099,8.1316347 51.4154963,8.57445677 52.0423852,7.72883482 C52.3234468,7.37096781 52.127183,6.84871523 51.5639538,6.69722024 C51.0035513,6.54535695 50.4725207,6.79923996 50.3444638,7.1393057 C49.8624685,8.29577474 48.8868027,8.98376332 47.9182649,9.78224258 C47.8621017,9.82521118 47.8129436,9.86511059 47.7723882,9.89825779 C47.7532165,9.91397202 47.7334303,9.93054562 47.7156105,9.94478664 C47.6192606,9.92096976 47.5637119,9.86854808 47.5729291,9.79844788 C47.6308128,9.4231479 47.3776485,9.18927598 47.1296458,9.08259109 C46.8680017,8.96178796 46.389939,8.92213408 45.8798006,9.00868511 C45.6052525,9.05435459 45.3192751,9.15993456 45.0707808,9.30185369" id="Fill-30" fill="#7FB1DF"></path>
                <path d="M38.6658835,17.0058158 L37.6660074,15.6848385 L32.9879979,15.1837019 C33.0099962,15.2584672 33.0216713,15.3356879 33.0216713,15.4149957 C33.0216713,16.0404957 32.3066664,16.5475251 31.4248927,16.5475251 C30.542996,16.5475251 29.8281141,16.0404957 29.8281141,15.4149957 C29.8281141,15.2159897 29.9011139,15.0291377 30.0283105,14.8667164 L24.8900582,14.1668194 L24.2619403,16.3876819 C24.238836,16.5429827 24.2742298,16.7008616 24.3616084,16.8314861 C24.8928848,17.6251774 26.7772383,20.5618967 26.3311284,21.6444598 C25.9264342,22.6265991 24.5765523,22.4156847 24.5765523,22.4156847 C24.5765523,22.4156847 25.9538399,23.8386818 29.7352052,23.2218983 C32.6319703,22.7494893 34.856498,20.9588038 35.4859677,20.4058594 C35.5943614,20.3105918 35.7526505,20.3013843 35.871859,20.3825336 L36.257996,20.6455014 C36.3564351,20.7125324 36.4906368,20.6849097 36.5544195,20.584486 L38.6757152,17.2453351 C38.7227841,17.1713063 38.7188514,17.0757933 38.6658835,17.0058158" id="Fill-32" fill="#141137"></path>
                <path d="M24.8900213,14.166758 C24.8900213,14.166758 25.7137885,18.9911491 29.600598,19.9169381 C34.0979514,20.9880838 37.5546274,15.606697 37.5546274,15.606697 C37.5546274,15.606697 37.7883743,16.1817396 38.5327511,16.1209697 C39.7940255,16.0182134 40.2585697,14.8973469 40.4477056,14.2696371 C40.6013247,13.7594157 40.6692858,12.3667422 39.9743129,12.0582277 C39.413173,11.8090098 38.9961892,12.0582277 38.9961892,12.0582277 C38.9961892,12.0582277 37.3229698,7.17478548 30.9376988,7.32677154 C26.6147339,7.42965063 26.0226243,10.2582118 26.0226243,10.2582118 L25.868145,10.8752409 C25.868145,10.8752409 25.6108022,10.5152868 25.1474869,10.6181659 C24.5438252,10.7522279 24.0915706,11.5277497 23.9632679,11.9553486 C23.8065764,12.4778467 23.8682698,13.7483667 24.2722266,14.1153185 C24.5553774,14.3725162 24.8900213,14.166758 24.8900213,14.166758" id="Fill-34" fill="#7FB1DF"></path>
                <path d="M31.6342079,13.3438849 C31.6342079,13.3438849 31.8400576,13.1381267 32.6380167,13.0352476 C33.4360988,12.9324913 33.5904553,13.2153474 34.1052637,13.1895662 C34.620195,13.1639078 34.5172087,12.3924374 34.5172087,12.3924374 C34.5172087,12.3924374 33.539085,11.9296043 32.8954824,12.1353624 C32.2520026,12.3409979 31.6342079,13.3438849 31.6342079,13.3438849" id="Fill-36" fill="#141137"></path>
                <path d="M29.8491046,13.2344254 C29.8491046,13.2344254 29.7364096,13.0745823 29.2201265,12.9149846 C28.7037204,12.755387 28.5690272,12.924806 28.231188,12.8486902 C27.8933488,12.7725744 28.0502861,12.2738932 28.0502861,12.2738932 C28.0502861,12.2738932 28.7509122,12.0796751 29.1531485,12.2897302 C29.5555077,12.4997852 29.8491046,13.2344254 29.8491046,13.2344254" id="Fill-38" fill="#141137"></path>
                <path d="M39.9742883,12.0581908 C39.4132713,11.8090958 38.9961647,12.0581908 38.9961647,12.0581908 C38.9961647,12.0581908 38.5029858,10.6254951 37.037951,9.33619174 C37.1370046,9.86212734 37.1912014,10.4015674 37.1912014,10.9525475 C37.1912014,15.0867402 34.2878,18.6155667 30.1974759,20.0187983 C34.3997577,20.5126916 37.5546028,15.6067829 37.5546028,15.6067829 C37.5546028,15.6067829 37.7883497,16.1817027 38.5328494,16.1210556 C39.7941238,16.0181765 40.2585451,14.8973101 40.447681,14.2696003 C40.601423,13.7593789 40.6692612,12.3667054 39.9742883,12.0581908" id="Fill-40" fill="#2F94D1"></path>
                <path d="M27.2839602,15.2210109 C27.2839602,15.2210109 28.1546734,16.0134746 29.9609885,15.9924813 C33.2751059,15.9539324 33.9765923,15.6130072 33.9765923,15.6130072 C33.9765923,15.6130072 33.152948,17.6638369 30.8104408,17.586739 C28.4680564,17.509641 28.2363988,17.2782244 28.2363988,17.2782244 C28.2363988,17.2782244 28.300673,17.0531918 28.2105908,16.7381706 C28.0332528,16.1180724 27.2839602,15.2210109 27.2839602,15.2210109" id="Fill-42" fill="#141137"></path>
                <path d="M33.8888696,1.33055323 C29.0673185,0.724696044 24.7963382,3.11018966 24.3496138,6.658659 C24.14401,8.2914656 24.647512,9.57057929 25.868231,10.8753514 C28.9315192,10.010946 30.6303008,8.57837305 30.6303008,8.57837305 C30.6303008,8.57837305 31.9906289,10.0780998 36.8166043,12.4238168 C37.6568394,12.8322639 38.6487274,12.7913824 39.4514794,12.3134488 C40.8177065,11.5001147 41.6090293,10.4502078 41.8102089,8.85251268 C42.2569333,5.30404335 38.7104208,1.93641042 33.8888696,1.33055323" id="Fill-44" fill="#FEFEFE"></path>
                <path d="M33.8888696,1.33055323 C32.99751,1.21846658 32.1253221,1.20938179 31.2923378,1.29028552 C31.417691,1.30207119 31.5431671,1.31471624 31.6692577,1.33055323 C36.4909317,1.93641042 40.0374442,5.30404335 39.5907198,8.85251268 C39.3895402,10.4502078 38.5982174,11.5001147 37.2318675,12.3134488 C37.1331826,12.3722544 37.031671,12.4240623 36.9279474,12.4694862 C37.7437264,12.8230564 38.6835067,12.7706347 39.4514794,12.3134488 C40.8177065,11.5001147 41.6090293,10.4502078 41.8102089,8.85251268 C42.2569333,5.30404335 38.7104208,1.93641042 33.8888696,1.33055323" id="Fill-46" fill="#BBBDBF"></path>
                <path d="M31.681793,8.38613155 C31.681793,9.16828275 31.2109811,9.80225367 30.6303008,9.80225367 C30.0494977,9.80225367 29.5788087,9.16828275 29.5788087,8.38613155 C29.5788087,7.60398036 30.0494977,6.96988667 30.6303008,6.96988667 C31.2109811,6.96988667 31.681793,7.60398036 31.681793,8.38613155" id="Fill-48" fill="#F26D31"></path>
                <path d="M21.2315512,36.1341452 C21.2315512,36.1341452 17.9798646,29.571122 18.1427008,27.2179162 C18.4085234,23.3768922 21.7973612,21.6420658 21.7973612,21.6420658 C21.7973612,21.6420658 17.9433647,23.3768922 17.2186511,26.2554197 C16.2261487,30.1978497 21.2315512,36.1341452 21.2315512,36.1341452" id="Fill-50" fill="#2F94D1"></path>
                <path d="M42.9026497,30.7062418 C42.9026497,30.7062418 41.6155673,30.4787538 40.5487132,28.8880564 C40.1905963,28.3540182 39.4505209,26.2000639 39.4505209,26.2000639 C39.4505209,26.2000639 38.5893935,28.8150098 39.6719782,31.0346446 C40.3031684,32.3291043 40.8378859,32.5718154 40.8378859,32.5718154 L42.9026497,30.7062418 Z" id="Fill-52" fill="#2F94D1"></path>
                <path d="M20.6548773,31.137315 C22.1308498,28.5835073 30.4632738,32.561417 31.9476032,34.3868457 C30.269468,31.8976136 23.857283,24.8281749 20.6548773,29.4738166 C20.1492861,30.2071063 20.1023401,31.1518016 20.2833648,32.108528 C20.3572249,31.7673574 20.4790142,31.4415327 20.6548773,31.137315" id="Fill-54" fill="#2F94D1"></path>
                <path d="M37.0096728,47.0469652 C33.6461514,46.6013195 31.9644522,48.1783897 31.0523233,46.1225266 C30.6754034,45.2726078 30.4608282,41.1335044 30.4936413,41.060335 C30.5679929,40.8950901 27.32368,38.8785125 24.8983413,39.3321381 C23.7560295,39.5457534 23.2547396,40.5702475 23.2670291,40.5978702 C23.3567427,40.7987177 24.3450667,52.6013313 34.7959598,49.5670119 C41.5527432,47.6051886 32.63374,52.7042104 34.5789267,54.5150297 C34.8067746,54.7271718 35.1639083,54.6077191 35.1322013,54.2980997 C34.8474529,51.5212236 44.9065559,48.0934346 37.0096728,47.0469652" id="Fill-56" fill="#FEFEFE"></path>
                <path d="M31.0523724,46.1225511 C30.6753297,45.2726323 30.4608774,41.1334062 30.4936904,41.0603596 C30.5204816,41.0005718 30.1141897,40.6994234 29.4699726,40.3603398 L29.4699726,41.2916534 C29.4973783,42.1826993 29.701876,45.3861922 30.0285317,46.1225511 C30.5089294,47.2053597 31.2034108,47.2801251 32.2440881,47.1736857 C31.7409548,47.0839427 31.3542033,46.8026826 31.0523724,46.1225511" id="Fill-58" fill="#BBBDBF"></path>
                <path d="M33.9765923,1.85806026 C33.9765923,1.85806026 31.9805269,1.96057105 30.6302763,3.58699375 C30.2484406,4.04688048 31.2923132,1.29026097 31.2923132,1.29026097 L32.7197421,1.37153299 L33.9765923,1.85806026 Z" id="Fill-60" fill="#BBBDBF"></path>
                <path d="M56.2426024,47.0394027 C56.6063724,46.3607445 57.0795193,45.2032933 57.6619201,43.5674175 C57.7952615,43.5068931 58.1106109,42.6649542 58.608091,41.0406186 C58.9111508,40.4591921 59.6117769,38.2839991 60.7098464,34.5149167 C61.8074243,30.7465709 62.3626652,27.9714135 62.3745861,26.18969 C62.3866298,25.560016 62.162223,24.9238352 61.7013657,24.2815161 C61.5924804,24.2815161 61.4831036,24.1661148 61.3738497,23.9358031 L61.3738497,23.8812944 C61.3738497,23.5059944 61.8709612,23.0877258 62.8659215,22.6269797 C62.9872191,22.5664554 63.3328007,22.5178395 63.9032807,22.4816231 C64.982793,22.5907633 65.8048396,23.0272015 66.3686832,23.7903237 C66.9330184,24.5538143 67.2027736,25.7719125 67.1784403,27.4440047 C67.0571427,29.8557706 66.5111189,32.5036181 65.5408605,35.3876702 C64.4003922,38.9020102 63.0844293,42.3377791 61.5924804,45.6941174 C61.3980601,46.1666492 61.1008992,46.7970598 60.7005064,47.58449 C60.3002364,48.3724113 59.6208712,49.2389037 58.6626566,50.1838445 C57.704319,51.1291536 56.2666898,51.7352563 54.3501377,52.0017844 C52.0088594,52.1712034 50.3774243,51.7228568 49.4553409,50.6563763 C48.6668447,49.699527 48.3334298,48.5965846 48.4544816,47.3484083 C48.5759022,46.1003548 48.982194,45.1670769 49.6737259,44.548943 C50.316837,44.0523488 51.0048048,43.8129523 51.7389813,43.8311219 C52.472912,43.8492915 52.9732188,44.1430739 53.2401474,44.7124692 C51.9783814,45.7912264 51.3961035,47.0937887 51.4931907,48.6208925 C51.6873653,49.5294942 52.2575995,49.9839791 53.2037704,49.9839791 C54.4289136,49.9839791 55.4419395,49.0024537 56.2426024,47.0394027" id="Fill-62" fill="#141137"></path>
                <path d="M72.8010722,25.8810282 L72.9648916,25.8810282 C73.4742926,25.8930594 73.9655051,26.1781254 74.438652,26.7352439 C74.547906,26.9532788 74.5962038,27.1835905 74.584283,27.4258106 C74.4873186,28.1165001 74.1049913,28.7955266 73.4379156,29.4617854 C73.061856,29.7890833 72.6372528,29.9769174 72.1642288,30.025165 L71.7458932,30.025165 C70.9086075,29.7828222 70.4293159,29.2136724 70.3083869,28.3167337 C70.3447639,27.4925961 70.7629766,26.8382457 71.5636395,26.3533145 C71.5755603,26.256451 71.9881198,26.0990631 72.8010722,25.8810282 M64.339731,49.3658207 C64.2427667,48.2636148 64.6007607,46.7241114 65.4134672,44.7487838 C66.4322693,42.1556904 67.3847078,39.4958116 68.2702913,36.7692702 C68.5978073,35.2907822 68.6642936,34.3455959 68.4703649,33.9334657 L68.2340372,33.5881209 C68.4885534,32.9944177 69.1253968,32.7154901 70.1445675,32.7517065 L70.199133,32.7517065 C72.0915977,32.788414 73.0072905,34.078945 72.9467031,36.6237908 L72.9467031,36.7326855 C72.874072,38.4537618 71.9580105,41.2346893 70.199133,45.0763272 C69.362216,47.2334734 68.937367,48.5297746 68.9253232,48.9662127 C68.8889462,49.4630524 69.1072083,49.6929958 69.5803552,49.6567794 C69.9808709,49.5476392 70.3929389,49.2871267 70.8177879,48.8751193 C71.7640817,47.6875901 72.5647446,46.5061993 73.2197765,45.3305785 C73.4135824,45.2214383 73.5109154,45.5185354 73.5109154,46.2215016 C73.53488,46.7546805 72.9223699,47.8696542 71.6728934,49.5660543 C70.4235398,51.1170978 68.8889462,51.850142 67.0691127,51.7653098 C65.4315329,51.8018944 64.5216161,51.0021875 64.339731,49.3658207" id="Fill-64" fill="#141137"></path>
                <path d="M82.654473,45.6758987 C83.169773,44.3189505 83.7187463,42.9435871 84.3011471,41.5495632 C85.4170364,38.5205228 85.9448717,36.6662437 85.8842843,35.9875855 C85.8595823,35.2120637 85.5082247,34.8182259 84.8287366,34.8058263 C83.3731647,34.660347 81.6142872,36.8360311 79.5518583,41.3315282 C79.4669377,41.4407912 78.9120654,42.8010542 77.8869957,45.4125626 C76.8615574,48.0241938 76.4099172,49.5418446 76.5312148,49.9658832 C76.6281792,50.3053351 76.7736873,50.5113388 76.9679847,50.5838944 C76.8466871,51.2382447 76.2156197,51.6136675 75.07552,51.7108992 C73.959385,51.6136675 73.1949762,51.2868606 72.7829083,50.7293738 C72.3708404,50.1722552 72.2070209,49.4025036 72.2916958,48.4206098 C72.3402394,47.6574875 72.9681115,45.7458761 74.1750662,42.6860211 C75.3820209,39.6260433 76.0699888,37.3086856 76.2403217,35.7329659 C76.2766987,35.5269621 76.2947643,35.3332352 76.2947643,35.1511711 C76.2585102,34.6545769 76.0580679,34.3698793 75.6942979,34.2969554 C75.7062187,33.8489771 75.9309942,33.5094025 76.3673954,33.2790908 C76.8041653,33.0491474 77.3685005,32.9153309 78.0599094,32.8791146 C79.8067432,33.1699506 80.6737695,34.2124914 80.6618487,36.0057551 L80.6436601,36.2965911 L80.7711026,36.2965911 C82.4450594,33.9215327 84.2888575,32.7459119 86.3026199,32.7702199 C87.0913619,32.7702199 87.8737133,33.0883102 88.6500429,33.724491 C89.4263725,34.3607945 89.8388091,35.4666833 89.8874757,37.0416665 C89.9114403,38.2659031 89.5237056,40.0352271 88.7230427,42.3493929 C88.4194914,43.1252829 87.964533,44.3128121 87.3580447,45.9123487 C86.7514335,47.5120082 86.4419831,48.5298728 86.4300623,48.9661882 C86.3938082,49.4631507 86.6119473,49.693094 87.0850942,49.6567549 C87.48561,49.5476146 87.9677282,49.093498 88.5316948,48.2936683 C89.0959071,47.4938386 89.7055906,46.5061747 90.3606226,45.330554 C90.5544284,45.2214137 90.6517615,45.5185109 90.6517615,46.2214771 C90.675849,46.754656 90.1238033,47.8696296 88.9957474,49.5660298 C87.8675686,51.1170733 86.4543956,51.8501175 84.7562284,51.7652852 C83.1185256,51.8018699 82.2086089,51.002163 82.0267238,49.3659189 C81.9293907,48.2635903 82.1385585,47.0332152 82.654473,45.6758987" id="Fill-66" fill="#141137"></path>
                <path d="M99.7409993,45.6758987 C100.256176,44.3189505 100.80515,42.9435871 101.387551,41.5495632 C102.50344,38.5205228 103.031275,36.6662437 102.970688,35.9875855 C102.945986,35.2120637 102.594628,34.8182259 101.91514,34.8058263 C100.459568,34.660347 98.7006907,36.8360311 96.6382618,41.3315282 C96.5533411,41.4407912 95.9984689,42.8010542 94.9733992,45.4125626 C93.9479609,48.0241938 93.4963206,49.5418446 93.6176183,49.9658832 C93.7145827,50.3053351 93.8600907,50.5113388 94.0545111,50.5838944 C93.9330905,51.2382447 93.3020232,51.6136675 92.1619235,51.7108992 C91.0457884,51.6136675 90.2813797,51.2868606 89.8693117,50.7293738 C89.4571209,50.1722552 89.2934244,49.4025036 89.3780992,48.4206098 C89.4266429,47.6574875 90.054515,45.7458761 91.2614697,42.6860211 C92.4684244,39.6260433 93.1565151,37.3086856 93.326848,35.7329659 C93.3631021,35.5269621 93.3812906,35.3332352 93.3812906,35.1511711 C93.3449136,34.6545769 93.1444714,34.3698793 92.7807013,34.2969554 C92.7926222,33.8489771 93.0173977,33.5094025 93.4539218,33.2790908 C93.8906916,33.0491474 94.454904,32.9153309 95.14619,32.8791146 C96.8931466,33.1699506 97.7602959,34.2124914 97.7482521,36.0057551 L97.7301865,36.2965911 L97.8576289,36.2965911 C99.5314629,33.9215327 101.375261,32.7459119 103.389023,32.7702199 C104.177765,32.7702199 104.96024,33.0883102 105.736446,33.724491 C106.512776,34.3607945 106.925213,35.4666833 106.973879,37.0416665 C106.997844,38.2659031 106.610109,40.0352271 105.809446,42.3493929 C105.505895,43.1252829 105.050936,44.3128121 104.444448,45.9123487 C103.837837,47.5120082 103.528387,48.5298728 103.516466,48.9661882 C103.480212,49.4631507 103.698351,49.693094 104.171498,49.6567549 C104.572013,49.5476146 105.054132,49.093498 105.618098,48.2936683 C106.182311,47.4938386 106.791994,46.5061747 107.447026,45.330554 C107.640955,45.2214137 107.738165,45.5185109 107.738165,46.2214771 C107.762252,46.754656 107.210207,47.8696296 106.082151,49.5660298 C104.953972,51.1170733 103.540799,51.8501175 101.842632,51.7652852 C100.204929,51.8018699 99.2950123,51.002163 99.1132502,49.3659189 C99.0159171,48.2635903 99.224962,47.0332152 99.7409993,45.6758987" id="Fill-68" fill="#141137"></path>
                <path d="M114.83468,25.8810282 L114.998377,25.8810282 C115.507901,25.8930594 115.999236,26.1781254 116.47226,26.7352439 C116.581637,26.9532788 116.629812,27.1835905 116.617891,27.4258106 C116.520927,28.1165001 116.138476,28.7955266 115.471646,29.4617854 C115.095341,29.7890833 114.670984,29.9769174 114.197714,30.025165 L113.779501,30.025165 C112.942215,29.7828222 112.462924,29.2136724 112.341995,28.3167337 C112.378372,27.4925961 112.796585,26.8382457 113.597247,26.3533145 C113.609168,26.256451 114.021728,26.0990631 114.83468,25.8810282 M106.373339,49.3658207 C106.276375,48.2636148 106.634369,46.7241114 107.447075,44.7487838 C108.465877,42.1556904 109.418316,39.4958116 110.303899,36.7692702 C110.631415,35.2907822 110.697902,34.3455959 110.503973,33.9334657 L110.267645,33.5881209 C110.522161,32.9944177 111.159005,32.7154901 112.178298,32.7517065 L112.232741,32.7517065 C114.125206,32.788414 115.040898,34.078945 114.980311,36.6237908 L114.980311,36.7326855 C114.90768,38.4537618 113.991618,41.2346893 112.232741,45.0763272 C111.395824,47.2334734 110.970975,48.5297746 110.958931,48.9662127 C110.922677,49.4630524 111.140816,49.6929958 111.613963,49.6567794 C112.014479,49.5476392 112.426547,49.2871267 112.851396,48.8751193 C113.79769,47.6875901 114.59823,46.5061993 115.253262,45.3305785 C115.44719,45.2214383 115.544523,45.5185354 115.544523,46.2215016 C115.568488,46.7546805 114.955978,47.8696542 113.706501,49.5660543 C112.457025,51.1170978 110.922677,51.850142 109.102721,51.7653098 C107.465141,51.8018944 106.555224,51.0021875 106.373339,49.3658207" id="Fill-70" fill="#141137"></path>
                <polygon id="Fill-73" fill="#2F94D1" points="80.1258777 24.9285127 80.1258777 29.3070125 81.630239 29.3070125 81.630239 30.0433714 79.342666 30.0433714 79.342666 24.9285127"></polygon>
                <path d="M88.277535,27.489711 C88.277535,26.3547263 87.5021886,25.5574747 86.3969912,25.5574747 C85.2913022,25.5574747 84.5162015,26.3547263 84.5162015,27.489711 C84.5162015,28.6246958 85.2913022,29.4223156 86.3969912,29.4223156 C87.5021886,29.4223156 88.277535,28.6246958 88.277535,27.489711 M89.060378,27.489711 C89.060378,28.9928752 87.9321992,30.1430831 86.3969912,30.1430831 C84.8614144,30.1430831 83.7332356,28.9928752 83.7332356,27.489711 C83.7332356,25.9869151 84.8614144,24.83683 86.3969912,24.83683 C87.9321992,24.83683 89.060378,25.9869151 89.060378,27.489711" id="Fill-75" fill="#2F94D1"></path>
                <polygon id="Fill-77" fill="#2F94D1" points="93.304604 25.6648716 93.304604 30.0433714 92.5217609 30.0433714 92.5217609 25.6648716 91.3471277 25.6648716 91.3471277 24.9285127 94.4793601 24.9285127 94.4793601 25.6648716"></polygon>
                <polygon id="Fill-79" fill="#2F94D1" points="98.6697456 25.6648716 98.6697456 30.0433714 97.8870255 30.0433714 97.8870255 25.6648716 96.7122693 25.6648716 96.7122693 24.9285127 99.8445018 24.9285127 99.8445018 25.6648716"></polygon>
                <path d="M106.522202,27.489711 C106.522202,26.3547263 105.746979,25.5574747 104.641658,25.5574747 C103.536092,25.5574747 102.760869,26.3547263 102.760869,27.489711 C102.760869,28.6246958 103.536092,29.4223156 104.641658,29.4223156 C105.746979,29.4223156 106.522202,28.6246958 106.522202,27.489711 M107.305045,27.489711 C107.305045,28.9928752 106.176866,30.1430831 104.641658,30.1430831 C103.106204,30.1430831 101.977903,28.9928752 101.977903,27.489711 C101.977903,25.9869151 103.106204,24.83683 104.641658,24.83683 C106.176866,24.83683 107.305045,25.9869151 107.305045,27.489711" id="Fill-81" fill="#2F94D1"></path>
            </g>
        </g>
    </g>
</svg>