<?xml version="1.0" encoding="UTF-8"?>
<svg width="142px" height="141px" viewBox="0 0 142 141" version="1.1" xmlns="http://www.w3.org/2000/svg" xmlns:xlink="http://www.w3.org/1999/xlink">
    <!-- Generator: Sketch 48.1 (47250) - http://www.bohemiancoding.com/sketch -->
    <title>ic_coin</title>
    <desc>Created with Sketch.</desc>
    <defs>
        <path d="M7.80447059,0.5502 L0.556773109,7.79243158 C-0.184672269,8.53292632 -0.184672269,9.73536842 0.548504202,10.4731053 C0.916470588,10.8454211 1.40157983,11.0315789 1.88668908,11.0315789 C2.36904202,11.0315789 2.85001681,10.8454211 3.2207395,10.4827579 L10.468437,3.23776842 C11.2098824,2.50003158 11.2098824,1.29896842 10.4767059,0.558473684 C10.1073613,0.184778947 9.62363025,0 9.13989916,0 C8.65754622,0 8.17381513,0.184778947 7.80447059,0.5502 Z" id="path-1"></path>
        <path d="M5.35963025,0.489526316 L0.509915966,5.30481053 C-0.161243697,5.97773684 -0.170890756,7.07537895 0.490621849,7.75382105 C0.821378151,8.09993684 1.26376471,8.27368421 1.70890756,8.27368421 C2.14026891,8.27368421 2.57576471,8.10958947 2.91065546,7.78277895 L7.7589916,2.96473684 C8.43152941,2.29456842 8.43979832,1.19554737 7.77828571,0.517105263 C7.44752941,0.172368421 7.00514286,0 6.56,0 C6.1272605,0 5.69314286,0.164094737 5.35963025,0.489526316 Z" id="path-3"></path>
        <path d="M16.2098151,0.907084211 L0.529210084,16.6050211 C-0.176403361,17.3082842 -0.176403361,18.4528105 0.529210084,19.1574526 C0.882016807,19.5077053 1.34507563,19.6842105 1.80813445,19.6842105 C2.26981513,19.6842105 2.7314958,19.5077053 3.08430252,19.1574526 L18.7649076,3.45951579 C19.470521,2.75625263 19.470521,1.61034737 18.7649076,0.907084211 C18.413479,0.554073684 17.9504202,0.377568421 17.4887395,0.377568421 C17.0256807,0.377568421 16.5626218,0.554073684 16.2098151,0.907084211 Z" id="path-5"></path>
        <path d="M4.97236975,0.563989474 L0.569176471,4.96007368 C-0.188806723,5.71297895 -0.188806723,6.94713684 0.560907563,7.7028 C0.937142857,8.08338947 1.43603361,8.27368421 1.92941176,8.27368421 C2.42554622,8.27368421 2.91616807,8.08338947 3.29515966,7.71107368 L7.69973109,3.31361053 C8.45771429,2.56346316 8.45771429,1.32792632 7.708,0.570884211 C7.3290084,0.188915789 6.8342521,0 6.3394958,0 C5.8447395,0 5.34998319,0.188915789 4.97236975,0.563989474 Z" id="path-7"></path>
        <path d="M7.80447059,0.5502 L0.556773109,7.79243158 C-0.184672269,8.53292632 -0.184672269,9.73536842 0.548504202,10.4731053 C0.916470588,10.8454211 1.40157983,11.0315789 1.88668908,11.0315789 C2.36904202,11.0315789 2.85001681,10.8454211 3.2207395,10.4827579 L10.468437,3.23776842 C11.2098824,2.50003158 11.2098824,1.29896842 10.4767059,0.558473684 C10.1073613,0.184778947 9.62363025,0 9.13989916,0 C8.65754622,0 8.17381513,0.184778947 7.80447059,0.5502 Z" id="path-9"></path>
        <path d="M0,4.13684211 C0,1.85192632 1.85085714,0 4.13445378,0 C6.41805042,0 8.26890756,1.85192632 8.26890756,4.13684211 C8.26890756,6.42175789 6.41805042,8.27368421 4.13445378,8.27368421 C1.85085714,8.27368421 0,6.42175789 0,4.13684211 Z M1.18107563,4.13684211 C1.18107563,5.76951579 2.50410084,7.09192632 4.13445378,7.09192632 C5.76618487,7.09192632 7.08783193,5.76951579 7.08783193,4.13684211 C7.08783193,2.50416842 5.76618487,1.18175789 4.13445378,1.18175789 C2.50410084,1.18175789 1.18107563,2.50416842 1.18107563,4.13684211 Z" id="path-11"></path>
        <path d="M0,42.0578947 C0,65.2862632 18.8200336,84.1157895 42.0336134,84.1157895 C65.2471933,84.1157895 84.0672269,65.2862632 84.0672269,42.0578947 C84.0672269,18.8295263 65.2471933,0 42.0336134,0 C18.8200336,0 0,18.8295263 0,42.0578947 Z" id="path-13"></path>
        <path d="M27.2749916,41.3987579 C18.9068571,60.0021368 4.8662521,56.6637053 0,73.0842105 C23.5953277,73.0842105 42.7226891,54.2877789 42.7226891,31.0994 C42.7226891,18.7716105 37.3134454,7.68073684 28.6986218,0 C22.1510252,14.5010105 35.6417479,22.7953789 27.2749916,41.3987579 Z" id="path-15"></path>
        <path d="M9.00621849,2.36489474 L9.00621849,5.65506316 L8.65616807,5.65506316 C3.88776471,5.65506316 0,9.37822105 0,13.9494316 C0,18.5178842 3.88776471,22.2424211 8.65616807,22.2424211 L14.3121008,22.2424211 C16.3683025,22.2424211 18.0344874,23.8392421 18.0344874,25.8097579 C18.0344874,27.7788947 16.3683025,29.3757158 14.3121008,29.3757158 L4.17442017,29.3757158 C2.81694118,29.3757158 1.70615126,30.4388842 1.70615126,31.7378526 C1.70615126,33.0395789 2.81694118,34.1041263 4.17442017,34.1041263 L9.02689076,34.1041263 L9.02689076,37.4728947 C9.02689076,38.7718632 10.1390588,39.8364105 11.4951597,39.8364105 C12.8512605,39.8364105 13.9620504,38.7718632 13.9620504,37.4728947 L13.9620504,34.1041263 L14.3741176,34.1041263 C19.1645714,34.0434526 22.9696471,30.3396 22.9696471,25.8097579 C22.9696471,21.2371684 19.0818824,17.5140105 14.3121008,17.5140105 L8.65616807,17.5140105 C6.60134454,17.5140105 4.93515966,15.9185684 4.93515966,13.9494316 C4.93515966,11.9775368 6.60134454,10.3820947 8.65616807,10.3820947 L18.6105546,10.3820947 C19.9666555,10.3820947 21.0774454,9.31892632 21.0774454,8.0172 C21.0774454,6.71823158 19.9666555,5.65506316 18.6105546,5.65506316 L13.9413782,5.65506316 L13.9413782,2.36489474 C13.9413782,1.06454737 12.8319664,0 11.4744874,0 C10.1156303,0 9.00621849,1.06454737 9.00621849,2.36489474 Z" id="path-17"></path>
    </defs>
    <g id="LP-Free-Ticket-Megamillions_v2" stroke="none" stroke-width="1" fill="none" fill-rule="evenodd" transform="translate(-1282.000000, -1410.000000)">
        <g id="how-it-works?" transform="translate(390.000000, 1314.000000)">
            <g id="3" transform="translate(784.000000, 96.000000)">
                <g id="ic_coin" transform="translate(108.000000, 0.000000)">
                    <circle id="Oval-6" fill="#C6DCF0" cx="70.5" cy="70.5" r="70.5"></circle>
                    <g id="Group-6" transform="translate(19.184874, 102.042105)">
                        <mask id="mask-2" fill="white">
                            <use xlink:href="#path-1"></use>
                        </mask>
                        <g id="Clip-5"></g>
                        <polygon id="Fill-4" fill="#41D6FF" mask="url(#mask-2)" points="-6.8907563 17.9263158 17.9159664 17.9263158 17.9159664 -6.89473684 -6.8907563 -6.89473684"></polygon>
                    </g>
                    <g id="Group-9" transform="translate(107.386555, 20.684211)">
                        <mask id="mask-4" fill="white">
                            <use xlink:href="#path-3"></use>
                        </mask>
                        <g id="Clip-8"></g>
                        <polygon id="Fill-7" fill="#EB6326" mask="url(#mask-4)" points="-6.8907563 15.1684211 15.1596639 15.1684211 15.1596639 -6.89473684 -6.8907563 -6.89473684"></polygon>
                    </g>
                    <g id="Group-12" transform="translate(93.605042, 1.000000)">
                        <mask id="mask-6" fill="white">
                            <use xlink:href="#path-5"></use>
                        </mask>
                        <g id="Clip-11"></g>
                        <polygon id="Fill-10" fill="#F9A524" mask="url(#mask-6)" points="-6.8907563 26.5789474 26.1848739 26.5789474 26.1848739 -6.51578947 -6.8907563 -6.51578947"></polygon>
                    </g>
                    <g id="Group-15" transform="translate(10.915966, 115.831579)">
                        <mask id="mask-8" fill="white">
                            <use xlink:href="#path-7"></use>
                        </mask>
                        <g id="Clip-14"></g>
                        <polygon id="Fill-13" fill="#67AEDC" mask="url(#mask-8)" points="-6.8907563 15.1684211 15.1596639 15.1684211 15.1596639 -6.89473684 -6.8907563 -6.89473684"></polygon>
                    </g>
                    <g id="Group-18" transform="translate(19.184874, 102.042105)">
                        <mask id="mask-10" fill="white">
                            <use xlink:href="#path-9"></use>
                        </mask>
                        <g id="Clip-17"></g>
                        <polygon id="Fill-16" fill="#8DB8E2" mask="url(#mask-10)" points="-6.8907563 17.9263158 17.9159664 17.9263158 17.9159664 -6.89473684 -6.8907563 -6.89473684"></polygon>
                    </g>
                    <g id="Group-21" transform="translate(9.000000, 22.578947)">
                        <mask id="mask-12" fill="white">
                            <use xlink:href="#path-11"></use>
                        </mask>
                        <g id="Clip-20"></g>
                        <polygon id="Fill-19" fill="#67AEDC" mask="url(#mask-12)" points="-6.8907563 15.1684211 15.1596639 15.1684211 15.1596639 -6.89473684 -6.8907563 -6.89473684"></polygon>
                    </g>
                    <g id="Group-24" transform="translate(35.722689, 30.336842)">
                        <mask id="mask-14" fill="white">
                            <use xlink:href="#path-13"></use>
                        </mask>
                        <g id="Clip-23"></g>
                        <polygon id="Fill-22" fill="#FABA5B" mask="url(#mask-14)" points="-6.8907563 91.0105263 90.9579832 91.0105263 90.9579832 -6.89473684 -6.8907563 -6.89473684"></polygon>
                    </g>
                    <g id="Group-27" transform="translate(73.000000, 42.000000)">
                        <mask id="mask-16" fill="white">
                            <use xlink:href="#path-15"></use>
                        </mask>
                        <g id="Clip-26"></g>
                        <polygon id="Fill-25" fill="#F9A524" mask="url(#mask-16)" points="-6.8907563 79.9789474 49.6134454 79.9789474 49.6134454 -6.89473684 -6.8907563 -6.89473684"></polygon>
                    </g>
                    <path d="M30.6932639,57.2223168 C31.9308437,53.2040642 33.7568941,49.4422958 36.0666756,46.0390537 C43.6285916,34.8985379 56.3916504,27.5790853 70.864995,27.5790853 C94.0799529,27.5790853 112.898608,46.4086116 112.898608,69.63698 C112.898608,77.8389589 110.551617,85.4934958 106.494339,91.9635168 M100.748827,99.2154011 C99.383079,100.597106 97.9208605,101.885043 96.3759529,103.066801 M88.7244571,107.720748 C83.3055664,110.270422 77.2513479,111.694875 70.864995,111.694875 C47.6514151,111.694875 28.8313815,92.8653484 28.8313815,69.63698" id="Stroke-28" stroke="#4C3A30" stroke-width="4" stroke-linecap="round" stroke-linejoin="round"></path>
                    <g id="Group-32" transform="translate(60.529412, 49.642105)">
                        <mask id="mask-18" fill="white">
                            <use xlink:href="#path-17"></use>
                        </mask>
                        <g id="Clip-31"></g>
                        <polygon id="Fill-30" fill="#4C3A30" mask="url(#mask-18)" points="-6.8907563 46.7311474 29.8604034 46.7311474 29.8604034 -6.89473684 -6.8907563 -6.89473684"></polygon>
                    </g>
                    <path d="M123.714259,117.847347 L123.722528,117.847347 L123.714259,117.847347 Z M123.714259,113.710505 C123.694965,113.710505 123.678427,113.710505 123.659133,113.711884 L123.657755,113.711884 L123.656376,113.711884 C123.317351,113.721537 122.996242,113.811168 122.717855,113.966989 L119.647334,115.581737 L116.540982,113.947684 C116.239166,113.789105 115.90841,113.710505 115.58041,113.710505 C115.150427,113.710505 114.724578,113.844263 114.364881,114.104884 C113.728175,114.568211 113.408444,115.351453 113.542124,116.129179 L114.134729,119.588958 L111.623738,122.039347 C111.058696,122.588168 110.856108,123.410021 111.10004,124.160168 C111.341217,124.908937 111.988948,125.455 112.768982,125.568074 L116.240545,126.072768 L117.793721,129.220905 C118.141015,129.926926 118.86041,130.373705 119.647334,130.373705 C120.434259,130.373705 121.153654,129.926926 121.500948,129.220905 L123.054124,126.072768 L126.525687,125.568074 C127.304343,125.455 127.952074,124.908937 128.194629,124.160168 C128.438561,123.410021 128.234595,122.588168 127.670931,122.039347 L125.159939,119.588958 L125.731872,116.249147 C125.766326,116.097463 125.78562,115.940263 125.78562,115.778926 C125.78562,114.637158 124.863637,113.710505 123.722528,113.710505 L123.719771,113.710505 L123.714259,113.710505 Z M123.714259,115.778926 L122.93836,120.310147 L126.228007,123.520337 L121.680108,124.182232 L119.647334,128.305284 L117.613183,124.182232 L113.065284,123.520337 L116.356309,120.310147 L115.58041,115.778926 L119.647334,117.919053 L123.714259,115.778926 Z M123.714259,115.778926 L123.722528,115.778926 L123.714259,115.778926 Z" id="Fill-33" fill="#F9A524"></path>
                    <path d="M140.593855,28.2736842 C140.593855,32.1526632 137.450292,35.2980421 133.573553,35.2980421 C129.696813,35.2980421 126.55325,32.1526632 126.55325,28.2736842 C126.55325,24.3947053 129.696813,21.2493263 133.573553,21.2493263 C137.450292,21.2493263 140.593855,24.3947053 140.593855,28.2736842 Z" id="Stroke-35" stroke="#67AEDC" stroke-width="1.5"></path>
                    <path d="M136.027351,25.6302421 C136.027351,26.0756421 135.919855,26.4465789 135.64836,26.8450947 C134.744292,28.1950842 134.122746,29.3423684 133.62799,30.8978211 C133.452965,31.4618105 133.15115,31.7251895 132.626074,31.7251895 C132.034847,31.7251895 131.702713,31.2770316 131.956292,30.6068632 C132.608158,28.8762842 133.472259,27.4380421 134.297771,26.3197158 L131.819855,26.3197158 C131.392629,26.3197158 131.119755,25.9791158 131.119755,25.5612947 C131.119755,25.1517474 131.42157,24.8221789 131.859822,24.8221789 L135.055755,24.8221789 C135.686948,24.8221789 136.027351,25.0662526 136.027351,25.6302421" id="Fill-37" fill="#4C3A2E"></path>
                </g>
            </g>
        </g>
    </g>
</svg>