<?xml version="1.0" encoding="UTF-8"?>
<svg width="141px" height="141px" viewBox="0 0 141 141" version="1.1" xmlns="http://www.w3.org/2000/svg" xmlns:xlink="http://www.w3.org/1999/xlink">
    <!-- Generator: Sketch 48.1 (47250) - http://www.bohemiancoding.com/sketch -->
    <title>ic_choose</title>
    <desc>Created with Sketch.</desc>
    <defs>
        <circle id="path-1" cx="70.5" cy="70.5" r="70.5"></circle>
        <filter x="-63.8%" y="-63.8%" width="227.7%" height="227.7%" filterUnits="objectBoundingBox" id="filter-2">
            <feOffset dx="0" dy="0" in="SourceAlpha" result="shadowOffsetOuter1"></feOffset>
            <feGaussianBlur stdDeviation="30" in="shadowOffsetOuter1" result="shadowBlurOuter1"></feGaussianBlur>
            <feColorMatrix values="0 0 0 0 0.965882242   0 0 0 0 0.937006787   0 0 0 0 1  0 0 0 1 0" type="matrix" in="shadowBlurOuter1"></feColorMatrix>
        </filter>
        <path d="M4.97236975,0.563989474 L0.569176471,4.96007368 C-0.188806723,5.71297895 -0.188806723,6.94713684 0.560907563,7.7028 C0.937142857,8.08338947 1.43603361,8.27368421 1.92941176,8.27368421 C2.42554622,8.27368421 2.91616807,8.08338947 3.29515966,7.71107368 L7.69973109,3.31361053 C8.45771429,2.56346316 8.45771429,1.32792632 7.708,0.570884211 C7.3290084,0.188915789 6.8342521,0 6.3394958,0 C5.8447395,0 5.34998319,0.188915789 4.97236975,0.563989474 Z" id="path-3"></path>
        <path d="M7.80447059,0.5502 L0.556773109,7.79243158 C-0.184672269,8.53292632 -0.184672269,9.73536842 0.548504202,10.4731053 C0.916470588,10.8454211 1.40157983,11.0315789 1.88668908,11.0315789 C2.36904202,11.0315789 2.85001681,10.8454211 3.2207395,10.4827579 L10.468437,3.23776842 C11.2098824,2.50003158 11.2098824,1.29896842 10.4767059,0.558473684 C10.1073613,0.184778947 9.62363025,0 9.13989916,0 C8.65754622,0 8.17381513,0.184778947 7.80447059,0.5502 Z" id="path-5"></path>
    </defs>
    <g id="LP-Free-Ticket-Megamillions_v2" stroke="none" stroke-width="1" fill="none" fill-rule="evenodd" transform="translate(-498.000000, -1412.000000)">
        <g id="how-it-works?" transform="translate(390.000000, 1314.000000)">
            <g id="1" transform="translate(0.000000, 98.000000)">
                <g id="ic_choose" transform="translate(108.000000, 0.000000)">
                    <g id="tap-3">
                        <g id="Oval-6">
                            <use fill="black" fill-opacity="1" filter="url(#filter-2)" xlink:href="#path-1"></use>
                            <use fill="#C7DCF1" fill-rule="evenodd" xlink:href="#path-1"></use>
                        </g>
                        <path d="M63.3727485,37.5774994 C62.219734,37.5774994 61.4511327,36.8091856 61.4511327,35.6566022 L61.4511327,27.9725634 C61.4511327,26.8199801 62.219734,26.0516663 63.3727485,26.0516663 C64.5257631,26.0516663 65.2943644,26.8199801 65.2943644,27.9725634 L65.2943644,35.6563771 C65.2943644,36.8091856 64.5257631,37.5774994 63.3727485,37.5774994 Z" id="Shape" fill="#8DB8E2" fill-rule="nonzero"></path>
                        <path d="M84.5111984,49.1033325 L76.8245098,49.1033325 C75.6714953,49.1033325 74.902894,48.3350187 74.902894,47.1824354 C74.902894,46.0298521 75.6714953,45.2615382 76.8245098,45.2615382 L84.5111984,45.2615382 C85.6642129,45.2615382 86.4328142,46.0298521 86.4328142,47.1824354 C86.4328142,48.3350187 85.6642129,49.1033325 84.5111984,49.1033325 Z" id="Shape" fill="#8DB8E2" fill-rule="nonzero"></path>
                        <path d="M47.9991462,49.1033325 L40.3124577,49.1033325 C39.1594431,49.1033325 38.3908418,48.3350187 38.3908418,47.1824354 C38.3908418,46.0298521 39.1594431,45.2615382 40.3124577,45.2615382 L47.9991462,45.2615382 C49.1521608,45.2615382 49.9207621,46.0298521 49.9207621,47.1824354 C49.9207621,48.3350187 49.1521608,49.1033325 47.9991462,49.1033325 Z" id="Shape" fill="#8DB8E2" fill-rule="nonzero"></path>
                        <path d="M72.9810529,41.4195188 C72.4045457,41.4195188 72.0201324,41.2274966 71.6359444,40.8432271 C70.8673431,40.0749133 70.8673431,38.92233 71.6359444,38.153791 L77.4010171,32.3908745 C78.1696184,31.6225606 79.3226329,31.6225606 80.0914594,32.3908745 C80.8602859,33.1591883 80.8600607,34.3117716 80.0914594,35.0803106 L74.3263867,40.8432271 C73.9419734,41.2272715 73.5575602,41.4195188 72.9810529,41.4195188 Z" id="Shape" fill="#8DB8E2" fill-rule="nonzero"></path>
                        <path d="M51.8426031,41.4195188 C51.2660958,41.4195188 50.8816826,41.2274966 50.4974945,40.8432271 L44.7324218,35.0803106 C43.9638205,34.3119967 43.9638205,33.1594134 44.7324218,32.3908745 C45.5010231,31.6223355 46.6540377,31.6225606 47.4228641,32.3908745 L53.1879369,38.153791 C53.9565382,38.9221049 53.9565382,40.0746882 53.1879369,40.8432271 C52.8032984,41.2272715 52.4191104,41.4195188 51.8426031,41.4195188 Z" id="Shape" fill="#8DB8E2" fill-rule="nonzero"></path>
                        <path d="M96.0413438,141.309998 L96.0413438,125.942145 C102.19083,117.68204 101.806417,121.908103 101.806417,102.890479 L101.806417,83.6808319 C101.806417,80.0310598 98.7317861,75.9970182 95.0804233,75.9970182 C91.4292856,75.9970182 94.1195028,80.0310598 94.1195028,83.6808319 L94.1195028,87.5228513 L94.1195028,74.076121 C94.1195028,70.4263489 91.0448724,66.3923073 87.3935095,66.3923073 C83.7423719,66.3923073 80.6675163,70.4263489 80.6675163,74.076121 L80.6675163,87.5228513 L80.6675163,66.3920822 C80.6675163,62.7423101 77.5928859,58.7082685 73.9415231,58.7082685 C70.2903854,58.7082685 69.1373709,62.7423101 69.1373709,66.3920822 L67.215755,85.6017291 L67.215755,51.0242297 C67.215755,47.3744576 67.023661,43.340416 63.3722981,43.340416 C59.7211605,43.340416 59.5288413,47.3744576 59.5288413,51.0242297 L59.5288413,93.2855428 C59.5288413,87.9068957 54.9167831,82.912293 49.9203117,77.9176902 C45.6926667,73.6916265 33.7781081,70.8101682 40.3117821,79.8385874 C44.9238402,86.1777956 46.8454561,99.8167732 47.9984706,106.732273 C50.881007,123.636753 61.4502319,125.94192 61.4502319,125.94192 L61.4502319,141.309998" id="Shape" fill="#FBD292" fill-rule="nonzero"></path>
                        <path d="M107.311847,103.023374 L107.311847,83.8801748 C107.311847,80.2430275 104.06142,76.2229399 100.201286,76.2229399 C99.185423,76.2229399 98.1697986,76.6058801 97.1539361,76.9885961 C99.5918157,78.3285505 101.217148,81.2000416 101.217148,83.8801748 L101.217148,103.023374 C101.217148,121.975216 101.623541,117.76377 95.1224491,125.995303 L95.1224491,141.309998 L101.217148,141.309998 L101.217148,125.995303 C107.921317,117.76377 107.311847,121.975216 107.311847,103.023374" id="Shape" fill="#F8CF96" fill-rule="nonzero"></path>
                        <path d="M48.3784107,106.915369 C47.2124746,100.036443 45.2693237,86.4695984 40.6055793,80.1639164 C35.1646201,72.7117469 42.3544834,73.4759973 47.6011958,76.3422164 C46.6295065,75.0047221 45.6580449,73.667004 44.4921088,72.5205163 C40.2170857,68.316803 28.1690035,71.1830221 34.7758988,80.1636925 C39.4396432,86.4693744 41.3827941,100.036219 42.5487302,106.915145 C45.4635704,123.730222 56.1512421,126.023197 56.1512421,126.023197 L56.1512421,141.309998 L61.9809226,141.309998 L61.9809226,126.023421 C61.9809226,126.023421 51.2932509,123.730446 48.3784107,106.915369" id="Shape" fill="#FFFFFF" fill-rule="nonzero"></path>
                        <path d="M60.0377716,93.5397546 L60.0377716,51.5017259 C60.0377716,48.2532697 60.2320184,45.0050374 62.5638906,44.0495564 C61.9809226,44.0495564 61.5922013,43.8585497 61.0092332,43.8585497 C57.3171782,43.8585497 54.2078634,47.8712564 54.2078634,51.5017259 L54.2078634,82.2658851 C57.5116527,85.8963545 60.0377716,89.7180546 60.0377716,93.5397546" id="Shape" fill="#FFFFFF" fill-rule="nonzero"></path>
                        <path d="M55.3804524,141.309998 C54.2173472,141.309998 53.4420194,140.540623 53.4420194,139.386447 L53.4420194,127.267608 C50.146479,125.921145 42.39252,121.304444 39.8725345,106.877255 L39.484757,104.953704 C38.3216518,98.0286532 36.3832189,86.2946139 32.3123506,80.7160253 C27.853705,74.5603491 31.1492454,71.0978236 32.1185755,70.1361612 C35.6078911,67.2507232 41.8111946,67.4430106 44.9127327,70.5209614 C47.2389431,72.8293118 49.5651535,76.2918374 51.3098113,79.9466503 L51.3098113,73.983487 C51.3098113,72.8293118 52.0851391,72.0599368 53.2482443,72.0599368 C54.4113495,72.0599368 55.1866772,72.8293118 55.1866772,73.983487 L55.1866772,93.2196651 C55.1866772,94.3738403 54.4113495,95.1432152 53.2482443,95.1432152 C52.0851391,95.1432152 51.3098113,94.3738403 51.3098113,93.2196651 C51.3098113,88.4106769 47.045168,78.2153875 42.1987449,73.4063994 C40.4540871,71.6751366 36.576994,71.6751366 34.638561,73.214112 C32.8939032,74.5605746 34.0570084,76.868925 35.4138888,78.6001878 C39.8725345,84.7558639 41.8109674,96.4899033 43.1678478,104.376842 L43.5556252,106.300392 C46.2696131,121.68947 55.1866772,123.805308 55.5744547,123.997821 C56.5437847,124.190108 57.1253373,124.959708 57.1253373,125.921371 L57.1253373,139.386673 C57.3191125,140.540623 56.5435576,141.309998 55.3804524,141.309998 Z" id="Shape" fill="#4C3A30" fill-rule="nonzero"></path>
                        <path d="M101.087472,141.309998 C99.9484444,141.309998 99.1891666,140.538207 99.1891666,139.380407 L99.1891666,126.065713 C99.1891666,125.679704 99.1891666,125.100805 99.5689168,124.715022 C100.707945,123.364332 101.467223,122.206532 102.226723,121.434515 C104.884529,117.961117 104.884529,117.961117 104.884529,106.576013 L104.884529,83.420023 C104.884529,80.7184154 102.796237,77.6310255 100.138653,77.6310255 C97.6708335,77.6310255 95.5825414,80.5255242 95.3927775,83.0340144 L95.3927775,87.2792039 C95.3927775,88.4370033 94.6334997,89.2087943 93.4944718,89.2087943 C92.3554438,89.2087943 91.596166,88.4370033 91.596166,87.2792039 L91.596166,83.420023 C91.596166,83.2271318 91.596166,83.0340144 91.596166,82.8411232 L91.596166,73.7716185 C91.596166,72.2278105 90.8368882,70.4911112 89.6978602,69.3333117 C88.7485961,68.3684034 87.7995544,67.982621 86.8502903,67.982621 C84.1924843,67.982621 82.1044146,71.070011 82.1044146,73.7716185 L82.1044146,87.2792039 C82.1044146,88.4370033 81.3451368,89.2087943 80.2061089,89.2087943 C79.0670809,89.2087943 78.3078031,88.4370033 78.3078031,87.2792039 L78.3078031,66.0530306 C78.3078031,64.5092226 77.5485253,62.7725233 76.4094973,61.6147238 C75.4602332,60.6498155 74.5111915,60.2640331 73.5619274,60.2640331 C70.9041214,60.2640331 69.0058156,63.3514231 68.8160518,65.8601394 L68.8160518,85.3498395 C68.8160518,86.507639 68.0567739,87.27943 66.917746,87.27943 C65.778718,87.27943 65.0194402,86.507639 65.0194402,85.3498395 L65.0194402,66.0530306 L65.0194402,65.8601394 L65.0194402,50.6158548 C65.0194402,47.9142473 62.9311481,44.8268573 60.2735645,44.8268573 C57.6157585,44.8268573 55.5276889,47.9142473 55.5276889,50.6158548 L55.5276889,58.3344427 C55.5276889,59.4922422 54.768411,60.2640331 53.6293831,60.2640331 C52.4903551,60.2640331 51.7310773,59.4922422 51.7310773,58.3344427 L51.7310773,50.6158548 C51.7310773,45.9846568 55.337925,40.9674503 60.273787,40.9674503 C65.209649,40.9674503 68.8164967,45.9846568 68.8164967,50.6158548 L68.8164967,58.1415515 C70.1452885,56.983752 71.8538304,56.4048522 73.5623724,56.4048522 C75.6506644,56.4048522 77.5489702,57.3697605 79.0677483,58.9133424 C80.9660541,60.8429329 81.9153182,63.3516492 82.105082,65.8601394 C83.4338738,64.7023399 85.1424158,64.1234401 86.8509577,64.1234401 C88.9392498,64.1234401 90.8375556,65.0883484 92.3563337,66.6319303 C94.2546395,68.5615208 95.3936674,71.2631283 95.3936674,73.7716185 L95.3936674,75.5083177 C96.7224592,74.3505182 98.4310011,73.7716185 100.139543,73.7716185 C105.075405,73.7716185 108.682253,78.788825 108.682253,83.420023 L108.682253,106.383122 C108.682253,118.732907 108.682253,119.311807 105.075405,123.750114 C104.505891,124.521905 103.746613,125.293922 102.987113,126.451722 L102.987113,139.380407 C102.986001,140.538207 102.2265,141.309998 101.087472,141.309998 Z" id="Shape" fill="#4C3A30" fill-rule="nonzero"></path>
                        <path d="M55.7990184,66.0530871 C55.7990184,64.8326571 54.9854779,64.0191166 53.7650479,64.0191166 C52.5446179,64.0191166 51.7310773,64.8326571 51.7310773,66.0530871 C51.7310773,67.2735171 52.5446179,68.0870577 53.7650479,68.0870577 C54.9854779,68.0870577 55.7990184,67.2735171 55.7990184,66.0530871" id="Shape" fill="#4C3A30" fill-rule="nonzero"></path>
                        <path d="M60.5449497,38.2554896 C59.3245197,38.2554896 58.5109791,37.4419808 58.5109791,36.2215985 L58.5109791,28.0855574 C58.5109791,26.865175 59.3245197,26.0516663 60.5449497,26.0516663 C61.7653797,26.0516663 62.5789202,26.865175 62.5789202,28.0855574 L62.5789202,36.2213601 C62.5791586,37.4419808 61.7653797,38.2554896 60.5449497,38.2554896 Z" id="Shape" fill="#4C3A30" fill-rule="nonzero"></path>
                        <path d="M82.2406753,49.1033325 L74.1047137,49.1033325 C72.8843075,49.1033325 72.0707828,48.289792 72.0707828,47.069362 C72.0707828,45.848932 72.8843075,45.0353914 74.1047137,45.0353914 L82.2406753,45.0353914 C83.4610815,45.0353914 84.2746061,45.848932 84.2746061,47.069362 C84.2746061,48.289792 83.4610815,49.1033325 82.2406753,49.1033325 Z" id="Shape" fill="#4C3A30" fill-rule="nonzero"></path>
                        <path d="M46.9851857,49.1033325 L38.8492241,49.1033325 C37.6288179,49.1033325 36.8152933,48.289792 36.8152933,47.069362 C36.8152933,45.848932 37.6288179,45.0353914 38.8492241,45.0353914 L46.9851857,45.0353914 C48.2055919,45.0353914 49.0191166,45.848932 49.0191166,47.069362 C49.0191166,48.289792 48.2055919,49.1033325 46.9851857,49.1033325 Z" id="Shape" fill="#4C3A30" fill-rule="nonzero"></path>
                        <path d="M69.9010752,40.9674503 C69.3315662,40.9674503 68.9518194,40.7776876 68.5722951,40.3979397 C67.8130239,39.6386663 67.8130239,38.499645 68.5722951,37.7401492 L74.2673848,32.0450428 C75.026656,31.2857694 76.1656739,31.2857694 76.9251675,32.0450428 C77.6846611,32.8043161 77.6844387,33.9433374 76.9251675,34.7028332 L71.2300778,40.3979397 C70.850331,40.7774651 70.4705842,40.9674503 69.9010752,40.9674503 Z" id="Shape" fill="#4C3A30" fill-rule="nonzero"></path>
                        <path d="M49.8326047,40.9674503 C49.2630907,40.9674503 48.8833406,40.7776876 48.5038129,40.3979397 L42.8086731,34.7028332 C42.0493953,33.9435599 42.0493953,32.8045386 42.8086731,32.0450428 C43.5679509,31.2857694 44.7069789,31.2857694 45.4664792,32.0450428 L51.1616189,37.7401492 C51.9208968,38.4994226 51.9208968,39.6384438 51.1616189,40.3979397 C50.7818688,40.7774651 50.4021187,40.9674503 49.8326047,40.9674503 Z" id="Shape" fill="#4C3A30" fill-rule="nonzero"></path>
                        <path d="M79.6643174,123.682253 L73.9691109,123.682253 C72.8300695,123.682253 72.0707828,122.868712 72.0707828,121.648282 C72.0707828,120.427852 72.8300695,119.614312 73.9691109,119.614312 L79.6643174,119.614312 C80.8033587,119.614312 81.5626454,120.427852 81.5626454,121.648282 C81.5626454,122.868712 80.8033587,123.682253 79.6643174,123.682253 Z" id="Shape" fill="#4C3A30" fill-rule="nonzero"></path>
                        <path d="M82.3375562,131.818135 L72.6518524,131.818135 C71.489577,131.818135 70.7148025,131.004594 70.7148025,129.784164 C70.7148025,128.563734 71.489577,127.750194 72.6518524,127.750194 L82.3375562,127.750194 C83.4998316,127.750194 84.2746061,128.563734 84.2746061,129.784164 C84.2746061,131.004594 83.4998316,131.818135 82.3375562,131.818135 Z" id="Shape" fill="#4C3A30" fill-rule="nonzero"></path>
                        <path d="M108.582122,14.3983118 C108.582122,10.5877466 105.482096,7.49867312 101.65802,7.49867312 C97.8339448,7.49867312 94.733919,10.5877466 94.733919,14.3983118 C94.733919,18.208877 97.8339448,21.2979504 101.65802,21.2979504 C105.482096,21.2979504 108.582122,18.208877 108.582122,14.3983118 Z M96.7122337,14.3983118 C96.7122337,11.6764795 98.9265378,9.46999845 101.65802,9.46999845 C104.389503,9.46999845 106.603807,11.6764795 106.603807,14.3983118 C106.603807,17.120144 104.389503,19.3266251 101.65802,19.3266251 C98.9265378,19.3266251 96.7122337,17.120144 96.7122337,14.3983118 Z" id="Oval-4" fill="#64D136" fill-rule="nonzero" opacity="0.900000036"></path>
                        <path d="M130.942438,72.4348983 C130.942438,70.3428232 129.240463,68.6468614 127.140971,68.6468614 C125.041478,68.6468614 123.339503,70.3428232 123.339503,72.4348983 C123.339503,74.5269733 125.041478,76.2229352 127.140971,76.2229352 C129.240463,76.2229352 130.942438,74.5269733 130.942438,72.4348983 Z M124.425637,72.4348983 C124.425637,70.940559 125.641333,69.7291576 127.140971,69.7291576 C128.640608,69.7291576 129.856305,70.940559 129.856305,72.4348983 C129.856305,73.9292376 128.640608,75.1406389 127.140971,75.1406389 C125.641333,75.1406389 124.425637,73.9292376 124.425637,72.4348983 Z" id="Oval-4-Copy" fill="#F08B5C" fill-rule="nonzero"></path>
                        <path d="M16.7003816,34.1794087 C16.7003816,32.0873337 14.9984067,30.3913718 12.8989143,30.3913718 C10.7994218,30.3913718 9.09744694,32.0873337 9.09744694,34.1794087 C9.09744694,36.2714837 10.7994218,37.9674456 12.8989143,37.9674456 C14.9984067,37.9674456 16.7003816,36.2714837 16.7003816,34.1794087 Z M10.1835805,34.1794087 C10.1835805,32.6850694 11.3992768,31.473668 12.8989143,31.473668 C14.3985518,31.473668 15.6142481,32.6850694 15.6142481,34.1794087 C15.6142481,35.673748 14.3985518,36.8851493 12.8989143,36.8851493 C11.3992768,36.8851493 10.1835805,35.673748 10.1835805,34.1794087 Z" id="Oval-4-Copy" fill="#8DB8E2" fill-rule="nonzero"></path>
                        <path d="M10.6339887,111.371613 L10.6339887,106.470758 C10.6339887,105.575116 11.3545786,104.849056 12.2574331,104.849056 C13.1540367,104.849056 13.8808775,105.570124 13.8808775,106.470758 L13.8808775,111.371613 L18.7817326,111.371613 C19.6773739,111.371613 20.4034346,112.092203 20.4034346,112.995057 C20.4034346,113.891661 19.6823659,114.618502 18.7817326,114.618502 L13.8808775,114.618502 L13.8808775,119.519357 C13.8808775,120.414998 13.1602877,121.141059 12.2574331,121.141059 C11.3608296,121.141059 10.6339887,120.41999 10.6339887,119.519357 L10.6339887,114.618502 L5.73313368,114.618502 C4.83749239,114.618502 4.11143167,113.897912 4.11143167,112.995057 C4.11143167,112.098454 4.83250035,111.371613 5.73313368,111.371613 L10.6339887,111.371613 Z" id="Combined-Shape" fill="#F9A524"></path>
                    </g>
                    <g id="Group-15" transform="translate(110.915966, 25.831579)">
                        <mask id="mask-4" fill="white">
                            <use xlink:href="#path-3"></use>
                        </mask>
                        <g id="Clip-14"></g>
                        <polygon id="Fill-13" fill="#67AEDC" mask="url(#mask-4)" points="-6.8907563 15.1684211 15.1596639 15.1684211 15.1596639 -6.89473684 -6.8907563 -6.89473684"></polygon>
                    </g>
                    <g id="Group-18" transform="translate(119.184874, 12.042105)">
                        <mask id="mask-6" fill="white">
                            <use xlink:href="#path-5"></use>
                        </mask>
                        <g id="Clip-17"></g>
                        <polygon id="Fill-16" fill="#8DB8E2" mask="url(#mask-6)" points="-6.8907563 17.9263158 17.9159664 17.9263158 17.9159664 -6.89473684 -6.8907563 -6.89473684"></polygon>
                    </g>
                </g>
            </g>
        </g>
    </g>
</svg>