<svg xmlns="http://www.w3.org/2000/svg" xmlns:xlink="http://www.w3.org/1999/xlink" width="106" height="52" viewBox="0 0 106 52"><defs><path id="mhaad" d="M958.98 83.15c0-.43-9.9-.78-22.12-.78-12.21 0-22.12.35-22.12.78 0 .43 9.9.78 22.12.78s22.12-.35 22.12-.78"/><path id="mhaae" d="M942.51 77.18a21.24 21.24 0 0 1-29.85.74 20.89 20.89 0 0 1-.75-29.64 21.24 21.24 0 0 1 29.85-.75 20.89 20.89 0 0 1 .75 29.65"/><path id="mhaaf" d="M940.87 48.02a20.25 20.25 0 0 0-28.5.7 19.92 19.92 0 0 0 .72 28.3 20.25 20.25 0 0 0 28.5-.7 19.92 19.92 0 0 0-.72-28.3"/><path id="mhaag" d="M932.01 43.13a19.92 19.92 0 0 1 6.06 31.92 20.24 20.24 0 0 1-19.64 5.6 20.26 20.26 0 0 0 23.15-4.34 19.92 19.92 0 0 0-.71-28.3 20.1 20.1 0 0 0-8.86-4.88"/><path id="mhaaa" d="M913.97 77.83c-.3-.26-.6-.52-.89-.8a19.94 19.94 0 0 1-2.68-25.92h17.5v26.72z"/><path id="mhaai" d="M920.2 77.56c-5.82 1.46-12.06-3.21-13.9-10.43-1.85-7.22 1.39-14.28 7.2-15.75 5.83-1.47 12.06 3.21 13.9 10.43 1.85 7.21-1.38 14.28-7.2 15.75"/><path id="mhaab" d="M911.5 75.34a19.86 19.86 0 0 1-4.46-9.93v-5.82c.2-1.41.57-2.8 1.08-4.16h12.71v19.9h-9.32z"/><path id="mhaak" d="M909.33 73.36c-.91-1.75.88-5.06.9-5.9a.18.18 0 0 0-.06-.06c-1.07-.44-2.64-.73-2.97-2.12-.62-2.65.53-6.44 3.68-8.49 3.96-2.56 6.63-1.15 7.1 1.28.32 1.61-2.16 4.6-2.6 6.28-.01.01 0 .08.01.09.85.58 4.88.76 5.34 2.9.63 2.94-1.7 6.04-4.94 7.33-3.18 1.26-5.42.68-6.46-1.31m8.73-4.54c-.59-2.1-3.56-2.79-5.4-1.8-1.65.89-2.2 3.6-1.63 5 .6 1.49 2.2 2.12 4.25 1.27 2.1-.86 3.27-2.72 2.78-4.47m-9.33-5.15c.35 1.71 2.6 2.09 4.12 1.18 1.4-.83 2.64-3.45 2.28-5.15-.33-1.54-1.72-2.65-4.08-1.05a5.05 5.05 0 0 0-2.32 5.02"/><path id="mhaal" d="M957.61 39.52a1.38 1.38 0 0 0-.6-1.08c.04-.23.04-.46 0-.7-.12-.55-.5-1-1.06-1.25a2.12 2.12 0 0 0-.84-.17c-.67 0-1.3.33-1.64.84-.1-.04-.2-.08-.3-.1a2.18 2.18 0 0 0-.56-.08c-.8 0-1.48.42-1.74 1.06a3.9 3.9 0 0 1-1.2 1.41c-.1-.08-.22-.14-.35-.2-.36-.16-.77-.2-1.06-.2a3.26 3.26 0 0 0-1.72.44c-.8.46-1.13 1.06-.9 1.64.12.34.36.6.69.73a4.39 4.39 0 0 1 .35.92c.09.39.3.7.54.95-.27 1.47-.18 2.8-.09 4.18.01.18-.04.25-.09.31-.15.15-.54.33-1.17.33-.36 0-.73-.06-1.03-.17a24 24 0 0 0-2.58-.66c.05-.18.06-.36.02-.54.6-.31 1.2-.91 1.55-2.07.15-.49.23-1.43-.06-2.18a4.73 4.73 0 0 0 1.33-2.85 5.75 5.75 0 0 0-1.54-4.63c-.18-.21-.37-.4-.54-.57l-.05-.04a8.48 8.48 0 0 0-2-1.42 10.31 10.31 0 0 0-.98-.46 11.55 11.55 0 0 0-3.5-.81l-.15-.01-.58-.03h-.14l-.45.01h-.1a12 12 0 0 0-.57.05c-3.9.37-6.79 2.66-7.17 5.69-.15 1.16.04 2.2.59 3.18-.5.44-.8 1.05-.9 1.41-.18.57-.26 2.22.55 2.97l-.3 1.1-.02.06c-.05.37.03.74.23 1.06-.48.1-.9.18-1.25.23-2.59.38-7.43 3.78-7.82 6.6-.46 3.34 1.34 5.68 2.36 6.91-1.75 1.42-1.18 2.85-.96 3.25l.02.04.14.22.03.05.15.17.03.04c.11.13.25.26.38.37l.04.03.17.12.06.04.17.11.05.03c.14.09.3.16.45.23l.05.02a4 4 0 0 0 .18.07l.07.03.17.05.06.02.23.06.1.02h.02l.13.02.05.01.18.02h.07a2.94 2.94 0 0 0 .5-.01c.35-.05.88-.13 1.43-.32l.12-.04.05-.02a1.9 1.9 0 0 0 .17-.07c.44.95.88 1.89 1.3 2.83v.03c.05.32.17 1.1.43 2.03a16.82 16.82 0 0 0 .85 2.3 12.36 12.36 0 0 0 .83 1.46 8.98 8.98 0 0 0 1.15 1.36 7.44 7.44 0 0 0 3.1 1.75 7.64 7.64 0 0 0 2.12.28h.11c.91-.01 1.89-.16 2.9-.44a11.65 11.65 0 0 0-1.1 1.4c-.9 1.49-.32 2.37.11 2.77.25.23.58.36.92.36a1.25 1.25 0 0 0 1.27-1.4s0-.16.34-.58l.08-.1a7.02 7.02 0 0 1 .8-.76 27.12 27.12 0 0 1 .84-.68l.32-.26a33 33 0 0 0 1.11-.98c.2-.19.34-.36.47-.53.44-.59.57-1.16.41-1.72l-.05-.15a1.7 1.7 0 0 0-.5-.67 4.04 4.04 0 0 0-1.4-.66 13.6 13.6 0 0 0-2.88-.39c-.61 0-1.15.05-1.6.1l-.38.05-.33.04-.14.01-.26.02h-.1c-.06 0-.11 0-.17-.02a.35.35 0 0 1-.09-.02l-.04-.03a.52.52 0 0 1-.08-.1l-.06-.09a1.78 1.78 0 0 1-.05-.1l-.01-.05c-.13-.4-.27-1.56-.37-2.98v-.2l-.04-.5-1 .02.87-.06.04.02v-.02h.1l-.01-.16c.52-.98 1.51-1.53 2.86-2.27 1.76-.98 3.94-2.18 6.2-4.9l1.57-1.4a34.03 34.03 0 0 0 1.15-.16 17.86 17.86 0 0 0 3.57-.94c.3-.12.6-.26.88-.4 1.75-.85 3-2.03 3.73-3.5.35-.7.57-1.46.67-2.28.06-.48.02-1.45-.96-4.36-.4-1.18-.84-2.33-1.12-3.02a5.24 5.24 0 0 1-.4-1.32c.36-.22.82-.45 1.35-.73.62-.31 1.39-.7 2.26-1.21.56-.32.88-.83.85-1.37-.01-.26-.1-.5-.25-.7.25-.31.38-.67.36-1.04"/><path id="mhaam" d="M952.17 46.27c-.72-1.76-.45-2.16-.36-2.96H948c-.4 1.57-.32 2.9-.21 4.54.1 1.66-2.17 2.01-3.64 1.47a44.96 44.96 0 0 0-9.45-1.6c-3.56-.14-6.8.87-8.67 1.14-2.25.33-6.66 3.48-6.97 5.75-.52 3.8 2.28 6.1 2.81 6.98.23.37.1.42-.26.4a.81.81 0 0 0-.5.13c-2.34 1.84.44 3.45 1.7 3.28.8-.12 1.86-.34 2.36-.94.62 1.36 1.24 2.68 1.83 4.01.08.18.98 10.78 10.42 8.06 6.1-1.76-1.96 2.82-.2 4.44.2.2.53.09.5-.2-.26-2.49 8.83-5.56 1.7-6.5-3.04-.4-4.56 1.01-5.38-.84-.35-.76-.54-4.48-.5-4.54 1.32-2.94 5.23-2.66 9.33-7.63.45-.53 1.73-1.65 1.87-1.67.88-.14 8.72-.57 9.43-6.44.16-1.23-1.46-5.53-2.01-6.88"/><path id="mhaan" d="M924.3 62.97c-.5.6-1.74 1.25-2.53 1.36-.4.06-.97-.07-1.47-.33.35.91 1.74 1.5 2.54 1.4.61-.09 1.63-.22 2.36-.94-.22-.47-.68-1.01-.9-1.49"/><path id="mhaao" d="M952.18 46.27c-.72-1.76-.45-2.16-.36-2.96h-1.2c0 .43.11.98.48 1.9.55 1.35 2.17 5.64 2.02 6.88-.71 5.87-8.9 6.55-9.8 6.68-.13.02-1.06.9-1.5 1.43-4.11 4.96-8.02 4.68-9.35 7.62-.03.07.17 3.79.5 4.55.27.59.6.84 1.03.93-.3-.98-.48-4.35-.45-4.41 1.32-2.94 5.23-2.66 9.34-7.63.44-.53 1.73-1.65 1.87-1.67.88-.14 8.72-.57 9.43-6.44.16-1.23-1.46-5.53-2.01-6.88"/><path id="mhaap" d="M951.65 44.69c-.15.54-.9.82-1.66.61-.77-.2-1.28-.82-1.13-1.36.15-.55.9-.82 1.67-.61.77.2 1.27.81 1.12 1.36"/><path id="mhaaq" d="M946.71 40.36c-.33.19-.48.39-.46.42.03.08.07.16.24.19.19.03.3.14.34.29.02.07.23.42.38.88l.12.4c.1.52.82.95 1.64 1.46 1.11.67 1.43 1.07 2.72.06.84-.65 2.15-1.15 4.14-2.3.43-.24.45-.6.1-.76-.36-.16-.9-.08-1.24.14-.76.49-1.41.85-1.97 1.15-.04.02-.09.01-.12-.01-.02-.03-.02-.06.02-.08a27.4 27.4 0 0 0 3.34-2.11c.38-.28.42-.67.1-.86-.32-.19-.85-.07-1.17.23-1 .94-.65.53.59-.85.37-.39.29-.96-.26-1.2-.55-.23-1.14.01-1.31.43-.7 1.47-1.46 1.87-.9 1.1.26-.32.08-.79-.43-.92-.5-.14-.99.09-1.1.4-.44 1.03-1.32 1.65-2.2 2.37l-.12.1-.06.05c-.08-.03-.13-.07-.13-.14.06-.33-.17-.54-.4-.64-.23-.1-.66-.14-1.12-.06-.25.04-.51.13-.74.26"/><path id="mhaar" d="M940.93 47.28l-.9-1.19-4.23-.45.03.21c0 .56-.65 1.02-1.44 1.02-.8 0-1.45-.46-1.45-1.02a.8.8 0 0 1 .18-.5l-4.64-.62-.56 2c-.03.13 0 .28.09.4.48.7 2.18 3.34 1.77 4.32-.36.88-1.58.69-1.58.69s1.24 1.28 4.66.72a11.14 11.14 0 0 0 5.2-2.53c.1-.08.24-.1.34-.02l.35.24a.2.2 0 0 0 .27-.06l1.92-3a.19.19 0 0 0-.01-.21"/><path id="mhaas" d="M928.5 44.73s.74 4.33 4.25 5.16c4.06.97 7.18-3.87 7.18-3.87s.22.52.89.46c1.14-.09 1.56-1.1 1.73-1.66.14-.46.2-1.7-.43-1.99-.5-.22-.88 0-.88 0s-1.52-4.38-7.28-4.25c-3.9.1-4.44 2.64-4.44 2.64l-.14.55s-.24-.32-.65-.23c-.55.12-.96.82-1.07 1.2-.15.47-.1 1.61.27 1.94.26.23.56.05.56.05"/><path id="mhaat" d="M934.58 43.98s.18-.19.9-.28c.72-.09.86.16 1.33.14.46-.02.37-.72.37-.72s-.88-.41-1.47-.23c-.58.19-1.13 1.09-1.13 1.09"/><path id="mhaau" d="M932.97 43.9s-.1-.15-.57-.3c-.46-.14-.58.01-.89-.06-.3-.06-.16-.51-.16-.51s.63-.18 1 .01c.36.2.62.85.62.85"/><path id="mhaav" d="M942.11 42.83c-.5-.22-.88 0-.88 0s-.45-1.28-1.77-2.44c.09.47.14.96.14 1.45 0 3.72-2.63 6.89-6.32 8.15 3.8.44 6.64-3.97 6.64-3.97s.22.52.89.46c1.14-.09 1.56-1.1 1.73-1.66.14-.46.2-1.7-.43-1.99"/><path id="mhaaw" d="M930.65 45.67s.78.7 2.41.69c2.99-.04 3.62-.34 3.62-.34s-.74 1.83-2.85 1.76c-2.12-.07-2.33-.27-2.33-.27s.06-.2-.02-.49c-.16-.55-.83-1.35-.83-1.35"/><path id="mhaax" d="M936.62 33.2c-4.35-.55-8.21 1.6-8.62 4.78-.18 1.47.27 2.62 1.38 3.8 2.76-.78 4.3-2.07 4.3-2.07s1.23 1.35 5.59 3.45c.76.37 1.65.33 2.38-.1a3.98 3.98 0 0 0 2.13-3.1c.4-3.2-2.8-6.22-7.16-6.76"/><path id="mhaay" d="M936.61 33.2c-.8-.1-1.6-.11-2.34-.04l.34.04c4.35.54 7.55 3.57 7.15 6.75a3.98 3.98 0 0 1-2.4 3.25c.73.32 1.58.27 2.27-.14a3.98 3.98 0 0 0 2.13-3.1c.4-3.2-2.8-6.22-7.15-6.76"/><path id="mhaaz" d="M934.62 39.54c0 .7-.43 1.28-.95 1.28-.53 0-.95-.57-.95-1.28 0-.7.42-1.28.95-1.28.52 0 .95.58.95 1.28"/><path id="mhaaA" d="M925.2 64.46s-2.95-5.9-2.8-8c.24-3.46 3.3-5.02 3.3-5.02s-3.48 1.56-4.14 4.15c-.9 3.54 3.64 8.87 3.64 8.87"/><path id="mhaaB" d="M944.78 59.59s-1.17-.2-2.14-1.64c-.32-.48-1-2.41-1-2.41s-.77 2.35.2 4.34c.58 1.16 1.06 1.38 1.06 1.38z"/><path id="mhaaC" d="M924.67 59.97c1.33-2.3 8.86 1.28 10.2 2.92-1.52-2.23-7.31-8.58-10.2-4.41-.46.66-.5 1.5-.34 2.37a3 3 0 0 1 .34-.88"/><path id="mhaaD" d="M939.43 74.26c-3.04-.4-4.56 1.01-5.38-.84-.34-.76-.53-4.48-.5-4.54.06-.15-2.87-1.96-5.06-1.56a2.1 2.1 0 0 0-1.47 1.14c.08.18.97 10.78 10.41 8.06 6.1-1.76-1.95 2.82-.2 4.44.21.2.53.09.5-.2-.25-2.49 8.84-5.56 1.7-6.5"/><path id="mhaaE" d="M934.05 73.43c-.34-.76-.53-4.48-.5-4.54.02-.06-.35-.33-.93-.63v.84c.02.8.21 3.67.5 4.33.44.98 1.07 1.04 2 .95-.45-.08-.8-.33-1.07-.95"/><path id="mhaaF" d="M936.7 33.67s-1.8.1-3.02 1.55c-.35.42.6-2.06.6-2.06l1.29.07z"/><path id="mhaaG" d="M956.8 74.26c.34-.61.76-1.65 1.29-3.12.12-.05.4-.81.85-2.27.28-.52.91-2.48 1.9-5.86 1-3.39 1.5-5.88 1.5-7.48.02-.57-.18-1.14-.6-1.72-.1 0-.2-.1-.3-.3v-.05c0-.34.45-.72 1.35-1.13.11-.06.42-.1.94-.13a3 3 0 0 1 2.23 1.17c.5.69.75 1.78.73 3.29-.11 2.16-.6 4.54-1.48 7.13a94.54 94.54 0 0 1-4.38 10.96 9.5 9.5 0 0 1-1.84 2.33c-.86.85-2.16 1.4-3.9 1.64-2.1.15-3.58-.25-4.41-1.21a3.9 3.9 0 0 1-.9-2.97 3.7 3.7 0 0 1 1.1-2.52c.57-.44 1.2-.66 1.86-.64.66.01 1.11.28 1.35.79a4.08 4.08 0 0 0-1.57 3.5c.17.83.69 1.23 1.54 1.23 1.1 0 2.02-.88 2.75-2.64"/><path id="mhaaH" d="M964.12 76.35c-.08-1 .24-2.38.97-4.15.92-2.33 1.78-4.72 2.59-7.17.3-1.33.35-2.18.18-2.55l-.22-.3c.23-.54.8-.8 1.73-.76h.05c1.7.03 2.53 1.2 2.48 3.48v.1c-.07 1.54-.9 4.04-2.48 7.5-.76 1.93-1.14 3.1-1.15 3.49-.04.44.16.65.59.62.36-.1.73-.33 1.12-.7a23.43 23.43 0 0 0 2.17-3.19c.17-.1.26.17.26.8.02.48-.53 1.48-1.66 3a4.85 4.85 0 0 1-4.16 1.98c-1.48.03-2.3-.68-2.47-2.15m7.65-21.1h.15c.46.01.9.27 1.33.77.1.2.14.4.13.62a3.27 3.27 0 0 1-1.04 1.83c-.34.3-.72.46-1.15.5h-.38a1.7 1.7 0 0 1-1.3-1.53c.04-.74.42-1.33 1.14-1.77.01-.08.38-.22 1.12-.42"/><path id="mhaaI" d="M980.66 73.03c.47-1.22.96-2.45 1.49-3.7 1-2.72 1.48-4.39 1.43-5-.02-.7-.34-1.05-.95-1.06-1.32-.13-2.9 1.82-4.77 5.86-.07.1-.58 1.32-1.5 3.67-.93 2.34-1.33 3.7-1.23 4.09.1.3.22.49.4.55-.11.59-.68.93-1.71 1.01-1-.08-1.7-.38-2.07-.88-.37-.5-.52-1.19-.44-2.07.04-.69.6-2.4 1.7-5.15 1.09-2.75 1.7-4.83 1.86-6.25a3 3 0 0 0 .05-.52c-.03-.45-.21-.7-.54-.77.01-.4.21-.7.6-.91.4-.2.91-.33 1.53-.36 1.58.26 2.36 1.2 2.35 2.8l-.01.27h.11c1.51-2.14 3.18-3.2 5-3.17.7 0 1.42.29 2.12.86.7.57 1.07 1.56 1.11 2.98.03 1.1-.32 2.69-1.05 4.77l-1.23 3.2a12.01 12.01 0 0 0-.84 2.74c-.03.45.17.65.6.62.36-.1.8-.5 1.3-1.22s1.06-1.61 1.65-2.67c.18-.1.26.17.26.8.03.48-.47 1.48-1.5 3-1.01 1.4-2.29 2.06-3.82 1.98-1.48.04-2.3-.68-2.46-2.15-.1-1 .1-2.1.56-3.32"/><path id="mhaaJ" d="M996.12 73.03c.46-1.22.96-2.45 1.48-3.7 1.01-2.72 1.49-4.39 1.43-5-.02-.7-.34-1.05-.95-1.06-1.32-.13-2.9 1.82-4.77 5.86-.07.1-.58 1.32-1.5 3.67-.93 2.34-1.34 3.7-1.23 4.09.1.3.22.49.4.55-.11.59-.68.93-1.71 1.01-1.01-.08-1.7-.38-2.07-.88-.38-.5-.52-1.19-.45-2.07.05-.69.61-2.4 1.7-5.15 1.1-2.75 1.72-4.83 1.87-6.25a3 3 0 0 0 .05-.52c-.03-.45-.21-.7-.54-.77 0-.4.21-.7.6-.91.4-.2.91-.33 1.53-.36 1.58.26 2.37 1.2 2.36 2.8l-.02.27h.11c1.52-2.14 3.18-3.2 5-3.17.71 0 1.42.29 2.12.86.7.57 1.08 1.56 1.12 2.98.02 1.1-.33 2.69-1.05 4.77l-1.24 3.2a12 12 0 0 0-.83 2.74c-.04.45.16.65.59.62.36-.1.8-.5 1.3-1.22.51-.72 1.07-1.61 1.66-2.67.17-.1.26.17.26.8.02.48-.48 1.48-1.5 3-1.01 1.4-2.3 2.06-3.83 1.98-1.48.04-2.3-.68-2.46-2.15-.09-1 .1-2.1.57-3.32"/><path id="mhaac" d="M1011.36 55.25v23.26h-9.27V55.25h9.27z"/><path id="mhaaL" d="M1002.1 76.35c-.08-1 .24-2.38.97-4.15.92-2.33 1.78-4.72 2.59-7.17.3-1.33.35-2.18.18-2.55l-.22-.3c.23-.54.8-.8 1.73-.76h.05c1.7.03 2.53 1.2 2.48 3.48v.1c-.07 1.54-.9 4.04-2.48 7.5-.76 1.93-1.14 3.1-1.15 3.49-.04.44.16.65.59.62.36-.1.73-.33 1.12-.7a23.42 23.42 0 0 0 2.17-3.19c.17-.1.26.17.26.8.02.48-.53 1.48-1.66 3a4.85 4.85 0 0 1-4.16 1.98c-1.48.03-2.3-.68-2.47-2.15m7.65-21.1h.15c.46.01.9.27 1.33.77.1.2.14.4.13.62a3.27 3.27 0 0 1-1.04 1.83c-.34.3-.72.46-1.15.5h-.37a1.7 1.7 0 0 1-1.3-1.53c.03-.74.4-1.33 1.13-1.77.01-.08.38-.22 1.12-.42"/><path id="mhaaM" d="M978.38 54.39v3.93h1.35v.66h-2.05v-4.6z"/><path id="mhaaN" d="M986.46 56.7a2.34 2.34 0 0 1-2.4 2.38 2.34 2.34 0 0 1-2.41-2.39 2.34 2.34 0 0 1 2.4-2.38c1.4 0 2.41 1.03 2.41 2.38m-.7 0c0-1.02-.7-1.73-1.7-1.73s-1.7.71-1.7 1.73.7 1.74 1.7 1.74 1.7-.72 1.7-1.74"/><path id="mhaaO" d="M990.3 55.05v3.93h-.7v-3.93h-1.07v-.66h2.83v.66z"/><path id="mhaaP" d="M995.14 55.05v3.93h-.7v-3.93h-1.07v-.66h2.83v.66z"/><path id="mhaaQ" d="M1002.94 56.7a2.34 2.34 0 0 1-2.4 2.38 2.34 2.34 0 0 1-2.41-2.39 2.34 2.34 0 0 1 2.4-2.38c1.4 0 2.41 1.03 2.41 2.38m-.7 0c0-1.02-.7-1.73-1.7-1.73s-1.7.71-1.7 1.73.7 1.74 1.7 1.74 1.7-.72 1.7-1.74"/><clipPath id="mhaah"><use xlink:href="#mhaaa"/></clipPath><clipPath id="mhaaj"><use xlink:href="#mhaab"/></clipPath><clipPath id="mhaaK"><use xlink:href="#mhaac"/></clipPath></defs><g><g transform="translate(-906 -32)"><g><g><use fill="#141137" xlink:href="#mhaad"/></g><g><use fill="#141137" xlink:href="#mhaae"/></g><g><use fill="#fec30c" xlink:href="#mhaaf"/></g><g><use fill="#f79a1c" xlink:href="#mhaaf"/></g><g><use fill="#f26d31" xlink:href="#mhaag"/></g></g><g><g><g/><g clip-path="url(#mhaah)"><use fill="#fefefe" xlink:href="#mhaai"/></g></g><g><g/><g clip-path="url(#mhaaj)"><use fill="#f79a1c" xlink:href="#mhaak"/></g></g></g><g><g><g><use fill="#141137" xlink:href="#mhaal"/></g></g><g><use fill="#7fb1df" xlink:href="#mhaam"/></g><g><use fill="#2f94d1" xlink:href="#mhaan"/></g><g><use fill="#2f94d1" xlink:href="#mhaao"/></g><g><use fill="#2f94d1" xlink:href="#mhaap"/></g><g><use fill="#7fb1df" xlink:href="#mhaaq"/></g><g><use fill="#141137" xlink:href="#mhaar"/></g><g><use fill="#7fb1df" xlink:href="#mhaas"/></g><g><use fill="#141137" xlink:href="#mhaat"/></g><g><use fill="#141137" xlink:href="#mhaau"/></g><g><use fill="#2f94d1" xlink:href="#mhaav"/></g><g><use fill="#141137" xlink:href="#mhaaw"/></g><g><use fill="#fefefe" xlink:href="#mhaax"/></g><g><use fill="#bbbdbf" xlink:href="#mhaay"/></g><g><use fill="#f26d31" xlink:href="#mhaaz"/></g><g><use fill="#2f94d1" xlink:href="#mhaaA"/></g><g><use fill="#2f94d1" xlink:href="#mhaaB"/></g><g><use fill="#2f94d1" xlink:href="#mhaaC"/></g><g><use fill="#fefefe" xlink:href="#mhaaD"/></g><g><use fill="#bbbdbf" xlink:href="#mhaaE"/></g><g><use fill="#bbbdbf" xlink:href="#mhaaF"/></g><g><use fill="#fff" xlink:href="#mhaaG"/></g><g><use fill="#fff" xlink:href="#mhaaH"/></g><g><use fill="#fff" xlink:href="#mhaaI"/></g><g><use fill="#fff" xlink:href="#mhaaJ"/></g><g><g/><g clip-path="url(#mhaaK)"><use fill="#fff" xlink:href="#mhaaL"/></g></g><g><use fill="#2f94d1" xlink:href="#mhaaM"/></g><g><use fill="#2f94d1" xlink:href="#mhaaN"/></g><g><use fill="#2f94d1" xlink:href="#mhaaO"/></g><g><use fill="#2f94d1" xlink:href="#mhaaP"/></g><g><use fill="#2f94d1" xlink:href="#mhaaQ"/></g></g></g></g></svg>