<?xml version="1.0" encoding="UTF-8"?>
<svg width="23px" height="23px" viewBox="0 0 23 23" version="1.1" xmlns="http://www.w3.org/2000/svg" xmlns:xlink="http://www.w3.org/1999/xlink">
    <!-- Generator: Sketch 48.1 (47250) - http://www.bohemiancoding.com/sketch -->
    <title>ic_arrow</title>
    <desc>Created with Sketch.</desc>
    <defs></defs>
    <g id="LP-Free-Ticket-Megamillions_v2" stroke="none" stroke-width="1" fill="none" fill-rule="evenodd" transform="translate(-754.000000, -1471.000000)">
        <g id="how-it-works?" transform="translate(390.000000, 1314.000000)" fill="#AFB6D2">
            <path d="M381.978888,169.534661 L365.502958,169.534661 C364.696493,169.534661 364,168.874826 364,168.031703 C364,167.18858 364.659835,166.528745 365.502958,166.528745 L381.758186,166.528745 L374.786634,159.557193 C374.202132,158.972692 374.202132,158.022877 374.786634,157.438376 C375.371135,156.853875 376.320949,156.853875 376.90545,157.438376 L386.54972,167.082646 C386.841971,167.374896 386.988096,167.74021 386.988096,168.142054 C386.988096,168.543899 386.841971,168.909212 386.54972,169.201463 L376.90545,178.845732 C376.6132,179.137983 376.211355,179.284108 375.846042,179.284108 C375.444197,179.284108 375.078884,179.137983 374.786634,178.845732 C374.202132,178.261231 374.202132,177.311417 374.786634,176.726915 L381.978888,169.534661 Z" id="ic_arrow"></path>
        </g>
    </g>
</svg>