<?xml version="1.0" encoding="UTF-8"?>
<svg width="141px" height="141px" viewBox="0 0 141 141" version="1.1" xmlns="http://www.w3.org/2000/svg" xmlns:xlink="http://www.w3.org/1999/xlink">
    <!-- Generator: Sketch 48.1 (47250) - http://www.bohemiancoding.com/sketch -->
    <title>ic_lotto</title>
    <desc>Created with Sketch.</desc>
    <defs>
        <circle id="path-1" cx="70.5" cy="70.5" r="70.5"></circle>
        <filter x="-63.8%" y="-63.8%" width="227.7%" height="227.7%" filterUnits="objectBoundingBox" id="filter-2">
            <feOffset dx="0" dy="0" in="SourceAlpha" result="shadowOffsetOuter1"></feOffset>
            <feGaussianBlur stdDeviation="30" in="shadowOffsetOuter1" result="shadowBluer1"></feGaussianBlur>
            <feColorMatrix values="0 0 0 0 0.965882242   0 0 0 0 0.937006787   0 0 0 0 1  0 0 0 1 0" type="matrix" in="shadowBlurOuter1"></feColorMatrix>
        </filter>
        <path d="M0.341297297,4.23137391 C0.341297297,2.4066087 1.78462863,0.927165217 3.56466066,0.927165217 C5.34354354,0.927165217 6.78572573,2.4066087 6.78572573,4.23137391 C6.78572573,6.05495652 5.34354354,7.5344 3.56466066,7.5344 C1.78462863,7.5344 0.341297297,6.05495652 0.341297297,4.23137391 Z M1.26291491,4.23137391 C1.26291491,5.5346087 2.29255255,6.59067826 3.56466066,6.59067826 C4.83447047,6.59067826 5.86525726,5.5346087 5.86525726,4.23137391 C5.86525726,2.92813913 4.83447047,1.87088696 3.56466066,1.87088696 C2.29255255,1.87088696 1.26291491,2.92813913 1.26291491,4.23137391 Z" id="path-3"></path>
        <path d="M7.1738373,0.518734944 L0.728795996,6.9598351 C0.0693376043,7.61841675 0.0693376043,8.686619 0.720215682,9.34397424 C1.04749336,9.67510467 1.48018632,9.84066989 1.91042776,9.84066989 C2.3406692,9.84066989 2.76845913,9.67510467 3.09818832,9.35010628 L9.54445539,2.90777971 C10.2039138,2.25287729 10.2039138,1.18344863 9.55180994,0.524866989 C9.22330651,0.193736554 8.79306507,0.0281713366 8.36282362,0.0281713366 C7.93258218,0.0281713366 7.50234074,0.193736554 7.1738373,0.518734944 Z" id="path-5"></path>
        <path d="M4.78745946,1.34817391 L0.629246847,5.47784348 C0.0536216216,6.05377391 0.0441657658,6.99513043 0.611517117,7.57815652 C0.896374775,7.8738087 1.27579099,8.02281739 1.65757117,8.02281739 C2.02753153,8.02281739 2.39985586,7.88326957 2.68707748,7.59944348 L6.84529009,3.47095652 C7.4220973,2.8962087 7.43037117,1.95366957 6.8642018,1.37064348 C6.57934414,1.0749913 6.19992793,0.927165217 5.81932973,0.927165217 C5.44700541,0.927165217 5.07468108,1.06789565 4.78745946,1.34817391 Z" id="path-7"></path>
        <path d="M15.3393541,0.00413371981 C14.9473563,0.0125039614 14.560139,0.164364058 14.2625554,0.462105507 L0.662145345,14.0745098 C0.0514415215,14.6855374 0.0514415215,15.6780089 0.662145345,16.2878408 C0.96928993,16.5927567 1.37084861,16.7446168 1.77121217,16.7446168 C2.17277085,16.7446168 2.57432953,16.5927567 2.87788877,16.2878408 L16.4782988,2.67663227 C16.7758824,2.37769507 16.9276621,1.99027246 16.9360279,1.59926261 L16.9360279,1.53708367 C16.9276621,1.14726957 16.7758824,0.759846957 16.4782988,0.462105507 C16.1807151,0.164364058 15.7911076,0.0125039614 15.4003049,0.00413371981 L15.3393541,0.00413371981 Z" id="path-9"></path>
    </defs>
    <g id="LP-X-for-Megamillions" stroke="none" stroke-width="1" fill="none" fill-rule="evenodd" transform="translate(-890.000000, -1543.000000)">
        <g id="how-it-works?" transform="translate(390.000000, 1445.000000)">
            <g id="2" transform="translate(392.000000, 98.000000)">
                <g id="ic_lotto" transform="translate(108.000000, 0.000000)">
                    <g id="Oval-6">
                        <use fill="black" fill-opacity="1" filter="url(#filter-2)" xlink:href="#path-1"></use>
                        <use fill="#ADE79B" fill-rule="evenodd" xlink:href="#path-1"></use>
                    </g>
                    <path d="M97.7394404,113.722609 L45.1152488,113.722609 C42.9040798,113.722609 41.0948356,111.901322 41.0948356,109.675436 L41.0948356,30.3445171 C41.0948356,28.1186307 42.9040798,26.2973443 45.1152488,26.2973443 L97.7394404,26.2973443 C99.9506095,26.2973443 101.759854,28.1186307 101.759854,30.3445171 L101.759854,109.675436 C101.759854,111.901322 99.9506095,113.722609 97.7394404,113.722609" id="Fill-1" fill="#F6B192"></path>
                    <path d="M97.7394404,26.2974616 L94.183862,26.2974616 L94.183862,113.722726 L97.7394404,113.722726 C99.9506095,113.722726 101.759854,111.90144 101.759854,109.675553 L101.759854,30.3434616 C101.759854,28.118748 99.9506095,26.2974616 97.7394404,26.2974616" id="Fill-3" fill="#F08B5C"></path>
                    <path d="M36.4347212,57.6170199 L36.4347212,49.2025126" id="Stroke-5" stroke="#4C3A30" stroke-width="3" stroke-linecap="round" stroke-linejoin="round"></path>
                    <path d="M89.4820406,118.413623 L84.8639827,118.413623 L42.1352967,118.413623 C38.9991181,118.413623 36.4349542,115.83122 36.4349542,112.674167 L36.4349542,67.0106591" id="Stroke-7" stroke="#4C3A30" stroke-width="3" stroke-linecap="round" stroke-linejoin="round"></path>
                    <path d="M103.29474,106.892257 L103.29474,112.675105 C103.29474,115.830985 100.730577,118.413389 97.594398,118.413389" id="Stroke-9" stroke="#4C3A30" stroke-width="3" stroke-linecap="round" stroke-linejoin="round"></path>
                    <path d="M36.4347212,39.8081697 L36.4347212,36.727346 C36.4347212,33.571466 39.0000501,30.9878897 42.1350637,30.9878897 L97.594864,30.9878897 C100.729878,30.9878897 103.295206,33.571466 103.295206,36.727346 L103.295206,71.203957 L103.295206,80.5977135 L103.295206,97.498266" id="Stroke-11" stroke="#4C3A30" stroke-width="3" stroke-linecap="round" stroke-linejoin="round"></path>
                    <path d="M91.5616812,67.4904326 L47.8602206,67.4904326" id="Stroke-13" stroke="#4C3A2E" stroke-width="3" stroke-linecap="round" stroke-linejoin="round"></path>
                    <path d="M91.5616812,82.7362297 L47.8602206,82.7362297" id="Stroke-15" stroke="#4C3A2E" stroke-width="3" stroke-linecap="round" stroke-linejoin="round"></path>
                    <path d="M49.331615,96.5377808 L49.331615,105.773216" id="Stroke-17" stroke="#4C3A2E" stroke-width="2" stroke-linecap="square"></path>
                    <path d="M50.4966144,96.5377808 L50.4966144,105.773216" id="Stroke-19" stroke="#4C3A2E" stroke-width="2" stroke-linecap="square"></path>
                    <path d="M56.3216119,96.5377808 L56.3216119,105.773216" id="Stroke-21" stroke="#4C3A2E" stroke-width="2" stroke-linecap="square"></path>
                    <path d="M62.1466093,96.5377808 L62.1466093,105.773216" id="Stroke-23" stroke="#4C3A2E" stroke-width="2" stroke-linecap="square"></path>
                    <path d="M67.9716067,96.5377808 L67.9716067,105.773216" id="Stroke-25" stroke="#4C3A2E" stroke-width="2" stroke-linecap="square"></path>
                    <path d="M69.1366062,96.5377808 L69.1366062,105.773216" id="Stroke-27" stroke="#4C3A2E" stroke-width="2" stroke-linecap="square"></path>
                    <path d="M74.9616036,96.5377808 L74.9616036,105.773216" id="Stroke-29" stroke="#4C3A2E" stroke-width="2" stroke-linecap="square"></path>
                    <path d="M80.786601,96.5377808 L80.786601,105.773216" id="Stroke-31" stroke="#4C3A2E" stroke-width="2" stroke-linecap="square"></path>
                    <path d="M86.6115984,96.5377808 L86.6115984,105.773216" id="Stroke-33" stroke="#4C3A2E" stroke-width="2" stroke-linecap="square"></path>
                    <path d="M87.7765979,96.5377808 L87.7765979,105.773216" id="Stroke-35" stroke="#4C3A2E" stroke-width="2" stroke-linecap="square"></path>
                    <g id="Group-40" transform="translate(28.171772, 0.623188)">
                        <mask id="mask-4" fill="white">
                            <use xlink:href="#path-3"></use>
                        </mask>
                        <g id="Clip-39"></g>
                        <polygon id="Fill-38" fill="#8DB8E2" mask="url(#mask-4)" points="-5.52510911 13.5337739 12.5854815 13.5337739 12.5854815 -5.10413913 -5.52510911 -5.10413913"></polygon>
                    </g>
                    <g id="Group-43" transform="translate(13.828228, 118.985507)">
                        <mask id="mask-6" fill="white">
                            <use xlink:href="#path-5"></use>
                        </mask>
                        <use id="Clip-42" fill="#8DB8E2" xlink:href="#path-5"></use>
                    </g>
                    <g id="Group-46" transform="translate(120.000000, 24.000000)">
                        <mask id="mask-8" fill="white">
                            <use xlink:href="#path-7"></use>
                        </mask>
                        <g id="Clip-45"></g>
                        <polygon id="Fill-44" fill="#8DB8E2" mask="url(#mask-8)" points="-5.81255495 13.959513 13.2409946 13.959513 13.2409946 -5.10295652 -5.81255495 -5.10295652"></polygon>
                    </g>
                    <g id="Group-49" transform="translate(108.000000, 8.000000)">
                        <mask id="mask-10" fill="white">
                            <use xlink:href="#path-9"></use>
                        </mask>
                        <use id="Clip-48" fill="#FABA5B" xlink:href="#path-9"></use>
                    </g>
                    <path d="M130.831369,124.123613 L128.663894,124.123613 C127.876352,124.123613 127.237772,123.503726 127.237772,122.737364 C127.237772,121.971001 127.876352,121.351114 128.663894,121.351114 L132.479204,121.351114 C132.998844,121.351114 133.423793,120.937466 133.423793,120.432416 C133.423793,119.927367 132.998844,119.512546 132.479204,119.512546 L130.689334,119.512546 L130.689334,118.235275 C130.689334,117.729054 130.264384,117.315405 129.744745,117.315405 C129.222796,117.315405 128.797846,117.729054 128.797846,118.235275 L128.797846,119.512546 L128.663894,119.512546 C126.835918,119.512546 125.346284,120.960902 125.346284,122.737364 C125.346284,124.513825 126.835918,125.961009 128.663894,125.961009 L130.831369,125.961009 C131.620066,125.961009 132.257491,126.582068 132.257491,127.347259 C132.257491,128.11245 131.620066,128.733508 130.831369,128.733508 L126.946774,128.733508 C126.427134,128.733508 125.999875,129.145985 125.999875,129.652206 C125.999875,130.156084 126.427134,130.570904 126.946774,130.570904 L128.805929,130.570904 L128.805929,131.879814 C128.805929,132.386036 129.230879,132.798512 129.751673,132.798512 C130.272468,132.798512 130.697417,132.386036 130.697417,131.879814 L130.697417,130.570904 L130.855619,130.570904 C132.690524,130.547468 134.148979,129.108487 134.148979,127.347259 C134.148979,125.569625 132.659346,124.123613 130.831369,124.123613" id="Fill-50" fill="#64D136"></path>
                    <path d="M23.6296682,23.4403647 C23.6296682,26.7366623 20.9956726,29.408386 17.7473475,29.408386 C14.4990224,29.408386 11.8661815,26.7366623 11.8661815,23.4403647 C11.8661815,20.1440671 14.4990224,17.4711716 17.7473475,17.4711716 C20.9956726,17.4711716 23.6296682,20.1440671 23.6296682,23.4403647 Z" id="Stroke-54" stroke="#3693D1" stroke-width="1.5"></path>
                    <path d="M19.8033883,21.1928358 C19.8033883,21.5725018 19.7133175,21.8865465 19.4858308,22.2251992 C18.7283117,23.3735716 18.2075173,24.3485164 17.7929603,25.6703165 C17.6463065,26.1484144 17.3934152,26.3722299 16.9546084,26.3722299 C16.4580638,26.3722299 16.1809227,25.9925639 16.3922428,25.4218931 C16.9384418,23.9512732 17.662473,22.7302487 18.3541711,21.7787401 L16.2779221,21.7787401 C15.9199481,21.7787401 15.6924614,21.4904752 15.6924614,21.1342453 C15.6924614,20.78739 15.944198,20.5073277 16.31141,20.5073277 L18.9892862,20.5073277 C19.5181639,20.5073277 19.8033883,20.7147379 19.8033883,21.1928358" id="Fill-56" fill="#4C3A2E"></path>
                    <path d="M55.1904297,45.6496688 L50.0488281,45.6496688 L50.0488281,48.9455673 L54.3466797,48.9455673 C54.7451192,48.9455673 55.0424795,49.0349218 55.2387695,49.2136337 C55.4350596,49.3923455 55.5332031,49.6311126 55.5332031,49.9299423 C55.5332031,50.2287719 55.4335947,50.4660742 55.234375,50.6418563 C55.0351553,50.8176384 54.7392598,50.9055282 54.3466797,50.9055282 L50.0488281,50.9055282 L50.0488281,55.1506454 C50.0488281,55.6897106 49.9272473,56.0896089 49.684082,56.3503524 C49.4409168,56.6110959 49.1289082,56.7414657 48.7480469,56.7414657 C48.3613262,56.7414657 48.0463879,56.6096311 47.8032227,56.3459579 C47.5600574,56.0822847 47.4384766,55.6838512 47.4384766,55.1506454 L47.4384766,45.2365829 C47.4384766,44.861581 47.4941401,44.5554317 47.6054688,44.3181258 C47.7167974,44.08082 47.8911121,43.9079701 48.128418,43.7995712 C48.3657238,43.6911722 48.6689435,43.6369735 49.0380859,43.6369735 L55.1904297,43.6369735 C55.6064474,43.6369735 55.9155263,43.7292577 56.1176758,43.913829 C56.3198252,44.0984002 56.4208984,44.340097 56.4208984,44.6389266 C56.4208984,44.9436157 56.3198252,45.1882421 56.1176758,45.3728133 C55.9155263,45.5573846 55.6064474,45.6496688 55.1904297,45.6496688 Z M61.8701172,51.0109969 L60.9560547,51.0109969 L60.9560547,55.1506454 C60.9560547,55.69557 60.8359387,56.0969332 60.5957031,56.3547469 C60.3554675,56.6125607 60.0419941,56.7414657 59.6552734,56.7414657 C59.2392557,56.7414657 58.9169933,56.6067014 58.6884766,56.3371688 C58.4599598,56.0676362 58.3457031,55.6721324 58.3457031,55.1506454 L58.3457031,45.2365829 C58.3457031,44.6740801 58.4716784,44.2668576 58.7236328,44.0149032 C58.9755872,43.7629488 59.3828097,43.6369735 59.9453125,43.6369735 L64.1904297,43.6369735 C64.7763701,43.6369735 65.2773417,43.6618756 65.6933594,43.7116805 C66.1093771,43.7614855 66.4843733,43.8625587 66.8183594,44.0149032 C67.2226583,44.1848259 67.5800766,44.4279875 67.890625,44.7443954 C68.2011734,45.0608032 68.4370109,45.4284753 68.5981445,45.8474227 C68.7592781,46.2663701 68.8398438,46.7102133 68.8398438,47.1789657 C68.8398438,48.139908 68.5688504,48.9074784 68.0268555,49.4817001 C67.4848606,50.0559217 66.6630914,50.4631442 65.5615234,50.7033798 C66.0244164,50.9494747 66.4667948,51.3127524 66.8886719,51.7932235 C67.310549,52.2736947 67.6870101,52.78492 68.0180664,53.3269149 C68.3491227,53.8689098 68.6069327,54.3581627 68.7915039,54.7946883 C68.9760751,55.231214 69.0683594,55.5315039 69.0683594,55.6955673 C69.0683594,55.86549 69.0141607,56.0339453 68.9057617,56.2009383 C68.7973627,56.3679314 68.649415,56.499766 68.4619141,56.5964462 C68.2744131,56.6931263 68.0576184,56.7414657 67.8115234,56.7414657 C67.5185532,56.7414657 67.2724619,56.6726187 67.0732422,56.5349227 C66.8740224,56.3972267 66.7026374,56.2229121 66.559082,56.0119735 C66.4155266,55.801035 66.2207044,55.4904912 65.9746094,55.0803329 L64.9287109,53.3400985 C64.5537091,52.7014234 64.2182632,52.2151002 63.9223633,51.8811141 C63.6264634,51.5471281 63.3261734,51.3186147 63.0214844,51.1955673 C62.7167954,51.0725198 62.3330101,51.0109969 61.8701172,51.0109969 Z M63.3642578,45.5969344 L60.9560547,45.5969344 L60.9560547,49.1389266 L63.2939453,49.1389266 C63.9209016,49.1389266 64.44824,49.084728 64.8759766,48.976329 C65.3037131,48.86793 65.63037,48.6833615 65.855957,48.422618 C66.0815441,48.1618745 66.1943359,47.8029914 66.1943359,47.3459579 C66.1943359,46.9885342 66.1035165,46.673596 65.921875,46.4011337 C65.7402335,46.1286714 65.4882829,45.9250601 65.1660156,45.7902938 C64.8613266,45.6613869 64.2607467,45.5969344 63.3642578,45.5969344 Z M79.7998047,45.6496688 L73.9199219,45.6496688 L73.9199219,48.8137313 L79.3339844,48.8137313 C79.7324239,48.8137313 80.0297842,48.9030859 80.2260742,49.0817977 C80.4223643,49.2605096 80.5205078,49.496347 80.5205078,49.7893173 C80.5205078,50.0822875 80.4238291,50.3210546 80.2304688,50.5056258 C80.0371084,50.6901971 79.7382833,50.7824813 79.3339844,50.7824813 L73.9199219,50.7824813 L73.9199219,54.4475204 L80.0019531,54.4475204 C80.4121114,54.4475204 80.7211904,54.5427343 80.9291992,54.7331649 C81.1372081,54.9235956 81.2412109,55.177011 81.2412109,55.4934188 C81.2412109,55.7981078 81.1372081,56.045664 80.9291992,56.2360946 C80.7211904,56.4265252 80.4121114,56.5217391 80.0019531,56.5217391 L72.9091797,56.5217391 C72.3408175,56.5217391 71.9321302,56.3957638 71.6831055,56.1438094 C71.4340808,55.8918551 71.3095703,55.4846326 71.3095703,54.9221298 L71.3095703,45.2365829 C71.3095703,44.861581 71.3652338,44.5554317 71.4765625,44.3181258 C71.5878912,44.08082 71.7622058,43.9079701 71.9995117,43.7995712 C72.2368176,43.6911722 72.5400372,43.6369735 72.9091797,43.6369735 L79.7998047,43.6369735 C80.2158224,43.6369735 80.5249013,43.7292577 80.7270508,43.913829 C80.9292002,44.0984002 81.0302734,44.340097 81.0302734,44.6389266 C81.0302734,44.9436157 80.9292002,45.1882421 80.7270508,45.3728133 C80.5249013,45.5573846 80.2158224,45.6496688 79.7998047,45.6496688 Z M91.8056641,45.6496688 L85.9257812,45.6496688 L85.9257812,48.8137313 L91.3398438,48.8137313 C91.7382832,48.8137313 92.0356435,48.9030859 92.2319336,49.0817977 C92.4282236,49.2605096 92.5263672,49.496347 92.5263672,49.7893173 C92.5263672,50.0822875 92.4296885,50.3210546 92.2363281,50.5056258 C92.0429678,50.6901971 91.7441426,50.7824813 91.3398438,50.7824813 L85.9257812,50.7824813 L85.9257812,54.4475204 L92.0078125,54.4475204 C92.4179708,54.4475204 92.7270497,54.5427343 92.9350586,54.7331649 C93.1430674,54.9235956 93.2470703,55.177011 93.2470703,55.4934188 C93.2470703,55.7981078 93.1430674,56.045664 92.9350586,56.2360946 C92.7270497,56.4265252 92.4179708,56.5217391 92.0078125,56.5217391 L84.9150391,56.5217391 C84.3466768,56.5217391 83.9379895,56.3957638 83.6889648,56.1438094 C83.4399402,55.8918551 83.3154297,55.4846326 83.3154297,54.9221298 L83.3154297,45.2365829 C83.3154297,44.861581 83.3710932,44.5554317 83.4824219,44.3181258 C83.5937506,44.08082 83.7680652,43.9079701 84.0053711,43.7995712 C84.242677,43.6911722 84.5458966,43.6369735 84.9150391,43.6369735 L91.8056641,43.6369735 C92.2216818,43.6369735 92.5307607,43.7292577 92.7329102,43.913829 C92.9350596,44.0984002 93.0361328,44.340097 93.0361328,44.6389266 C93.0361328,44.9436157 92.9350596,45.1882421 92.7329102,45.3728133 C92.5307607,45.5573846 92.2216818,45.6496688 91.8056641,45.6496688 Z" id="FREE" fill="#FFFFFF"></path>
                </g>
            </g>
        </g>
    </g>
</svg>