<svg xmlns="http://www.w3.org/2000/svg" xmlns:xlink="http://www.w3.org/1999/xlink" width="141" height="141" viewBox="0 0 141 141"><defs><path id="irsva" d="M889 1108.5a70.5 70.5 0 1 1 141 0 70.5 70.5 0 0 1-141 0z"/><path id="irsvl" d="M895 1143a3 3 0 0 1 3-3h79a3 3 0 0 1 3 3v75a3 3 0 0 1-3 3h-79a3 3 0 0 1-3-3z"/><path id="irsvm" d="M977.7 1140H975v81.23h2.7c1.7 0 3.07-1.7 3.07-3.76v-73.71c0-2.07-1.38-3.76-3.06-3.76"/><path id="irsvn" d="M891 1168.01v-7.74"/><path id="irsvo" d="M962.62 1226.03h-67.49c-2.27 0-4.13-2.43-4.13-5.4v-42.95"/><path id="irsvp" d="M980.85 1214v5.82c0 3.18-1.73 5.78-3.85 5.78"/><path id="irsvq" d="M891 1141.53v-3.37c0-3.46 3.45-6.3 7.67-6.3h74.66c4.22 0 7.67 2.84 7.67 6.3v66.6"/><path id="irsvr" d="M904 1158.75a3.75 3.75 0 0 1 3.75-3.75h9.5a3.75 3.75 0 0 1 3.75 3.75v10.5a3.75 3.75 0 0 1-3.75 3.75h-9.5a3.75 3.75 0 0 1-3.75-3.75z"/><path id="irsvs" d="M926 1158.75a3.75 3.75 0 0 1 3.75-3.75h9.5a3.75 3.75 0 0 1 3.75 3.75v10.5a3.75 3.75 0 0 1-3.75 3.75h-9.5a3.75 3.75 0 0 1-3.75-3.75z"/><path id="irsvt" d="M926 1135.75a3.75 3.75 0 0 1 3.75-3.75h9.5a3.75 3.75 0 0 1 3.75 3.75v10.5a3.75 3.75 0 0 1-3.75 3.75h-9.5a3.75 3.75 0 0 1-3.75-3.75z"/><path id="irsvu" d="M904 1136.07a3.75 3.75 0 0 1 3.75-3.75h9.5a3.75 3.75 0 0 1 3.75 3.75v10.5a3.75 3.75 0 0 1-3.75 3.75h-9.5a3.75 3.75 0 0 1-3.75-3.75z"/><path id="irsvv" d="M948 1158.75a3.75 3.75 0 0 1 3.75-3.75h9.5a3.75 3.75 0 0 1 3.75 3.75v10.5a3.75 3.75 0 0 1-3.75 3.75h-9.5a3.75 3.75 0 0 1-3.75-3.75z"/><path id="irsvw" d="M948 1135.75a3.75 3.75 0 0 1 3.75-3.75h9.5a3.75 3.75 0 0 1 3.75 3.75v10.5a3.75 3.75 0 0 1-3.75 3.75h-9.5a3.75 3.75 0 0 1-3.75-3.75z"/><path id="irsvx" d="M904 1181.75a3.75 3.75 0 0 1 3.75-3.75h9.5a3.75 3.75 0 0 1 3.75 3.75v10.5a3.75 3.75 0 0 1-3.75 3.75h-9.5a3.75 3.75 0 0 1-3.75-3.75z"/><path id="irsvy" d="M926 1181.75a3.75 3.75 0 0 1 3.75-3.75h9.5a3.75 3.75 0 0 1 3.75 3.75v10.5a3.75 3.75 0 0 1-3.75 3.75h-9.5a3.75 3.75 0 0 1-3.75-3.75z"/><path id="irsvz" d="M930.14 1181.75a3.75 3.75 0 0 1 3.75-3.75H943v11.01h-12.86z"/><path id="irsvA" d="M948 1181.75a3.75 3.75 0 0 1 3.75-3.75h9.5a3.75 3.75 0 0 1 3.75 3.75v10.5a3.75 3.75 0 0 1-3.75 3.75h-9.5a3.75 3.75 0 0 1-3.75-3.75z"/><path id="irsvB" d="M951.42 1201.86v9.67"/><path id="irsvC" d="M956.92 1202v9.67"/><path id="irsvD" d="M962.63 1201.86v9.67"/><path id="irsvb" d="M922 1089.48a30.44 30.44 0 0 0 30.39 30.49 30.44 30.44 0 0 0 30.39-30.49 30.44 30.44 0 0 0-30.39-30.48 30.44 30.44 0 0 0-30.39 30.48z"/><path id="irsvF" d="M917.02 1124.96h70.74V1054h-70.74z"/><path id="irsvc" d="M968.66 1097.65c-6.03 13.32-16.15 10.93-19.66 22.7 17.01 0 30.8-13.47 30.8-30.08 0-8.83-3.9-16.77-10.11-22.27-4.72 10.39 5 16.33-1.03 29.65z"/><path id="irsvH" d="M944.03 1125.28h40.74v-62.22h-40.74z"/><path id="irsvI" d="M917 1088c0 16.57 13.66 30 30.5 30a30.8 30.8 0 0 0 12.96-2.83m5.55-3.32a30.47 30.47 0 0 0 3.17-2.75m4.17-5.17A29.5 29.5 0 0 0 978 1088c0-16.57-13.65-30-30.5-30a30.61 30.61 0 0 0-25.25 13.17c-1.68 2.43-3 5.1-3.9 7.97"/><path id="irsvd" d="M946.65 1074.69v2.35h-.25c-3.53 0-6.4 2.65-6.4 5.92 0 3.26 2.87 5.92 6.4 5.92h4.17c1.52 0 2.75 1.14 2.75 2.54 0 1.4-1.23 2.55-2.75 2.55h-7.49c-1 0-1.82.76-1.82 1.68 0 .93.82 1.7 1.82 1.7h3.59v2.4c0 .92.82 1.68 1.82 1.68s1.83-.76 1.83-1.68v-2.4h.3c3.54-.05 6.35-2.7 6.35-5.93 0-3.26-2.87-5.92-6.4-5.92h-4.17c-1.52 0-2.75-1.14-2.75-2.54 0-1.41 1.23-2.55 2.75-2.55h7.35c1 0 1.82-.76 1.82-1.69 0-.92-.82-1.68-1.82-1.68h-3.45v-2.35c0-.93-.82-1.69-1.82-1.69s-1.83.76-1.83 1.69z"/><path id="irsvK" d="M934.9 1106.34h27.16v-38.26h-27.15z"/><path id="irsve" d="M985.21 1059.9l-15.68 15.7a1.8 1.8 0 1 0 2.55 2.55l15.68-15.7a1.8 1.8 0 1 0-2.55-2.54z"/><path id="irsvM" d="M962.1 1085.59h33.07v-33.1h-33.06z"/><path id="irsvf" d="M993.8 1041.55l-7.24 7.24a1.9 1.9 0 0 0 1.33 3.24c.48 0 .96-.18 1.33-.55l7.25-7.24a1.9 1.9 0 0 0-1.33-3.24c-.48 0-.97.18-1.34.55z"/><path id="irsvO" d="M979.1 1058.93h24.82v-24.82H979.1z"/><path id="irsvP" d="M929.94 1132.5l-6.44 6.43a1.7 1.7 0 0 0 1.18 2.88c.43 0 .86-.16 1.19-.49l6.44-6.44a1.69 1.69 0 0 0-1.18-2.88c-.43 0-.86.17-1.19.5z"/><path id="irsvQ" d="M954.14 1122c-.4 0-.78.16-1.08.46l-13.6 13.61a1.57 1.57 0 0 0 2.21 2.21l13.6-13.6c.3-.3.45-.7.46-1.08v-.07a1.56 1.56 0 0 0-1.53-1.53z"/><path id="irsvg" d="M905.21 1121.9l-15.68 15.7a1.8 1.8 0 1 0 2.55 2.55l15.68-15.7a1.8 1.8 0 1 0-2.55-2.54z"/><path id="irsvS" d="M882.1 1147.59h33.07v-33.1h-33.06z"/><path id="irsvT" d="M1012.24 1094.49h-1.68c-.6 0-1.1-.5-1.1-1.12 0-.62.5-1.12 1.1-1.12h2.95c.4 0 .73-.33.73-.74 0-.4-.33-.74-.73-.74h-1.38v-1.03c0-.4-.33-.74-.73-.74-.4 0-.73.33-.73.74v1.03h-.1a2.59 2.59 0 0 0-2.57 2.6c0 1.43 1.15 2.6 2.56 2.6h1.68c.6 0 1.1.5 1.1 1.12 0 .62-.5 1.12-1.1 1.12h-3a.74.74 0 1 0 0 1.48h1.43v1.05c0 .41.33.74.73.74.4 0 .74-.33.74-.74v-1.05h.12a2.59 2.59 0 0 0 2.54-2.6c0-1.44-1.15-2.6-2.56-2.6"/><path id="irsvU" d="M976.09 1174.79a2.71 2.71 0 1 1 5.42 0 2.71 2.71 0 0 1-5.42 0zm6.51 0a3.8 3.8 0 1 0-7.59.01 3.8 3.8 0 0 0 7.6-.01z"/><path id="irsvh" d="M966.26 1050.23c0 1.3 1.03 2.36 2.3 2.36 1.27 0 2.3-1.05 2.3-2.36 0-1.3-1.03-2.36-2.3-2.36a2.33 2.33 0 0 0-2.3 2.36zm-.92 0c0-1.82 1.44-3.3 3.22-3.3a3.26 3.26 0 0 1 3.22 3.3c0 1.83-1.44 3.3-3.22 3.3a3.26 3.26 0 0 1-3.22-3.3z"/><path id="irsvW" d="M960 1059.64h18.11V1041H960z"/><path id="irsvX" d="M912.72 1052.07l-4.07 2.14-4.07-2.14.78 4.53-3.3 3.2 4.55.67 2.04 4.11 2.03-4.11 4.55-.67-3.29-3.2zm0-2.07a2.07 2.07 0 0 1 2.01 2.54l-.57 3.34 2.51 2.45a2.07 2.07 0 0 1-1.14 3.53l-3.47.5-1.56 3.15a2.07 2.07 0 0 1-3.7 0l-1.56-3.15-3.47-.5a2.06 2.06 0 0 1-1.14-3.53l2.5-2.45-.59-3.46a2.07 2.07 0 0 1 3-2.18l3.1 1.63 3.08-1.61c.28-.16.6-.25.94-.26h.06z"/><mask id="irsvj" width="2" height="2" x="-1" y="-1"><path fill="#fff" d="M889 1038h141v141H889z"/><use xlink:href="#irsva"/></mask><filter id="irsvi" width="281" height="281" x="819" y="968" filterUnits="userSpaceOnUse"><feOffset in="SourceGraphic" result="FeOffset1029Out"/><feGaussianBlur in="FeOffset1029Out" result="FeGaussianBlur1030Out" stdDeviation="24 24"/></filter><clipPath id="irsvk"><use xlink:href="#irsva"/></clipPath><clipPath id="irsvE"><use xlink:href="#irsvb"/></clipPath><clipPath id="irsvG"><use xlink:href="#irsvc"/></clipPath><clipPath id="irsvJ"><use xlink:href="#irsvd"/></clipPath><clipPath id="irsvL"><use xlink:href="#irsve"/></clipPath><clipPath id="irsvN"><use xlink:href="#irsvf"/></clipPath><clipPath id="irsvR"><use xlink:href="#irsvg"/></clipPath><clipPath id="irsvV"><use xlink:href="#irsvh"/></clipPath></defs><g><g transform="translate(-829 -978)"><g><g><g><g filter="url(#irsvi)"><use fill="none" stroke-width="0" mask="url(&quot;#irsvj&quot;)" xlink:href="#irsva"/><use fill="#f6efff" xlink:href="#irsva"/></g><use fill="#ade79b" xlink:href="#irsva"/></g><g clip-path="url(#irsvk)" transform="rotate(90 1024.5 1136)"><g><use fill="#c6dcf0" xlink:href="#irsvl"/></g><g><use fill="#8db8e2" xlink:href="#irsvm"/></g><g><use fill="#fff" fill-opacity="0" stroke="#4c3a30" stroke-linecap="round" stroke-linejoin="round" stroke-miterlimit="50" stroke-width="4" xlink:href="#irsvn"/></g><g><use fill="#fff" fill-opacity="0" stroke="#4c3a30" stroke-linecap="round" stroke-linejoin="round" stroke-miterlimit="50" stroke-width="4" xlink:href="#irsvo"/></g><g><g fill="#fff" font-family="'Roboto Bk','Roboto-Black'" font-size="13"><text dominant-baseline="text-before-edge" font-family="Helvetica, Arial, sans-serif" transform="translate(1050 1180)"><tspan letter-spacing=".87">sdfdfds</tspan></text></g></g><g><use fill="#fff" fill-opacity="0" stroke="#4c3a30" stroke-linecap="round" stroke-linejoin="round" stroke-miterlimit="50" stroke-width="4" xlink:href="#irsvp"/></g><g><use fill="#fff" fill-opacity="0" stroke="#4c3a30" stroke-linecap="round" stroke-linejoin="round" stroke-miterlimit="50" stroke-width="4" xlink:href="#irsvq"/></g><g opacity=".5"><use fill="#fff" xlink:href="#irsvr"/></g><g opacity=".5"><use fill="#4c3a30" xlink:href="#irsvs"/></g><g opacity=".5"><use fill="#4c3a30" xlink:href="#irsvt"/></g><g opacity=".5"><use fill="#4c3a30" xlink:href="#irsvu"/></g><g opacity=".5"><use fill="#4c3a30" xlink:href="#irsvv"/></g><g opacity=".5"><use fill="#4c3a30" xlink:href="#irsvw"/></g><g opacity=".5"><use fill="#fff" xlink:href="#irsvx"/></g><g opacity=".5"><use fill="#fff" xlink:href="#irsvy"/></g><g opacity=".5"><use fill="#4c3a30" xlink:href="#irsvz"/></g><g opacity=".5"><use fill="#4c3a30" xlink:href="#irsvA"/></g><g><use fill="#fff" fill-opacity="0" stroke="#4c3a2e" stroke-linecap="square" stroke-miterlimit="50" stroke-width="2.5" xlink:href="#irsvB"/></g><g><use fill="#fff" fill-opacity="0" stroke="#4c3a2e" stroke-linecap="square" stroke-miterlimit="50" stroke-width="2.5" xlink:href="#irsvC"/></g><g><use fill="#fff" fill-opacity="0" stroke="#4c3a2e" stroke-linecap="square" stroke-miterlimit="50" stroke-width="2.5" xlink:href="#irsvD"/></g></g><g clip-path="url(#irsvk)"><g><g/><g clip-path="url(#irsvE)"><use fill="#faba5b" xlink:href="#irsvF"/></g></g><g><g/><g clip-path="url(#irsvG)"><use fill="#f9a524" xlink:href="#irsvH"/></g></g><g><use fill="#fff" fill-opacity="0" stroke="#4c3a30" stroke-linecap="round" stroke-linejoin="round" stroke-miterlimit="50" stroke-width="4" xlink:href="#irsvI"/></g><g><g/><g clip-path="url(#irsvJ)"><use fill="#4c3a30" xlink:href="#irsvK"/></g></g></g><g><g><g/><g clip-path="url(#irsvL)"><use fill="#67aedc" xlink:href="#irsvM"/></g></g><g><g/><g clip-path="url(#irsvN)"><use fill="#eb6326" xlink:href="#irsvO"/></g></g><g><g><use fill="#8db8e2" xlink:href="#irsvP"/></g></g><g><g><use fill="#faba5b" xlink:href="#irsvQ"/></g></g><g><g/><g clip-path="url(#irsvR)"><use fill="#f9a524" xlink:href="#irsvS"/></g></g><g><g><use fill="#64d136" xlink:href="#irsvT"/></g></g><g><use fill="#f08b5c" xlink:href="#irsvU"/></g><g><g/><g clip-path="url(#irsvV)"><use fill="#8db8e2" xlink:href="#irsvW"/></g></g><g><use fill="#73d54a" xlink:href="#irsvX"/></g></g></g></g></g></g></svg>